<svg width="213" height="98" viewBox="0 0 213 98" fill="none" xmlns="http://www.w3.org/2000/svg">
<path d="M92.2852 82.512V82.672H94.7812V82.992H94.6532V83.472H88.0292V83.632H89.1812V84.112H92.7012V84.432H90.8772V85.072H90.7812V85.232H88.6692V85.712H91.8052V85.872H91.9332V86.352H92.2532V86.992H86.0772V87.472H92.6052V87.792H90.4292V88.272H90.1412V88.592H90.8772V88.912H90.3972V89.232H91.5172L91.4212 89.552H92.9252C92.8826 89.616 92.8292 89.68 92.7652 89.744C92.7226 89.7867 92.6692 89.8293 92.6052 89.872H93.3412C93.2346 89.9573 93.0852 90 92.8932 90H86.6212C86.4292 90 86.2799 89.9573 86.1732 89.872H85.4372C85.2879 89.808 85.1812 89.7013 85.1172 89.552H83.6132L83.5172 89.232H82.3972V88.912H82.8772V88.592H82.1412V88.272H82.4292V87.792H84.6052V87.472H78.8132V87.792H76.1572V88.272H77.9812V88.592H77.5332V88.912H79.1972V89.232H77.4052L77.3092 89.552H78.0132C77.9279 89.7013 77.8319 89.808 77.7252 89.872H76.9572C76.8506 89.9573 76.7012 90 76.5092 90H70.2372C70.0239 90 69.8639 89.9573 69.7572 89.872H70.5252C70.4186 89.808 70.3226 89.7013 70.2372 89.552H69.5012C69.4372 89.4453 69.4052 89.3387 69.4052 89.232H71.1972V88.912H69.5332V88.592H69.9812V88.272H68.1572V87.792H70.8132V87.472H72.3492V86.992H67.4212V86.352H69.2452V85.872H70.5252V85.712H69.6292V85.232H68.1252V85.072H68.4452V84.432H69.4692V84.112H69.9492V83.632H67.6452V83.472H73.5652V82.992H66.3332V82.672H73.1492V82.512H69.8212V82.032H71.7412V81.872H72.1252V81.712H71.9652V81.072H68.7972V80.592H69.8532V80.432H69.5652V79.952H69.6932V79.792H69.7252V79.472H69.7572V79.312H69.3412V79.152H68.0932V78.672H68.5092V78.192H67.8692V77.712H69.4692V77.072H69.1172V76.752H66.7812V76.592H70.5252V76.272H71.4212V76.112H62.7812V75.952H67.8692V75.792H69.6932V75.312H66.4292V74.672H65.5332V74.192H69.3732V73.552H69.6932V73.072H71.7412V72.912H69.9812V72.272H71.4212V71.952H69.6932V71.792H69.0852V71.472H68.1572V71.152H67.0372V70.512H69.0532V70.032H70.2692V69.552H69.6932V69.232H68.8932V69.072H69.3412V68.752H69.2452V68.464C69.2452 68.3147 69.2772 68.1973 69.3412 68.112H71.3892C71.4106 68.048 71.4426 67.9947 71.4852 67.952C71.5279 67.888 71.5706 67.8347 71.6132 67.792H76.5412C76.6692 67.664 76.8506 67.6 77.0852 67.6H89.3732C89.5866 67.6 89.7679 67.664 89.9172 67.792H94.8452C94.8879 67.8347 94.9306 67.888 94.9732 67.952C95.0372 67.9947 95.0799 68.048 95.1012 68.112H90.9732C91.0159 68.24 91.0372 68.3573 91.0372 68.464V68.752H91.1972V69.072H91.6452V69.232H90.7812V69.552H90.3972V70.032H91.6452V70.512H88.6372V71.152H92.0932V71.472H89.5972V71.792H90.6212V71.952H90.1092V72.272H92.5092V72.912H88.9892V73.072H91.7092V73.552H91.2292V74.192H88.6692V74.672H87.6132V75.312H90.8772V75.792H89.0532V75.952H83.9652V76.112H92.6052V76.272H91.7092V76.592H87.9652V76.752H90.3012V77.072H90.6532V77.712H89.0532V78.192H89.6932V78.672H89.2772V79.152H90.5252V79.312H90.9412V79.472H90.9092V79.792H90.8772V79.952H90.7492V80.432H91.0372V80.592H89.9812V81.072H93.1492V81.712H93.3092V81.872H92.9252V82.032H91.0052V82.512H92.2852ZM73.5332 74.192V74.672H74.4292V75.184H79.6132V74.672H80.6692V74.192H83.2292V73.552H83.7092V73.072H80.9892V72.912H84.5092V72.272H82.1092V71.952H82.6212V71.792H81.5972V71.472H84.0932V71.152H80.6372V70.512H83.6452V70.032H82.3972V69.552H82.7812V69.232H83.6452V69.072H83.1972V68.752H83.0372V68.464C83.0372 68.3573 83.0586 68.24 83.1012 68.112H87.2292C87.2719 68.048 87.3146 67.9947 87.3572 67.952C87.3999 67.888 87.4426 67.8347 87.4852 67.792H78.9732C79.0799 67.8773 79.1652 67.984 79.2292 68.112H77.1812C77.2239 68.176 77.2452 68.2933 77.2452 68.464V68.752H77.3412V69.072H76.8932V69.232H77.6932V69.552H78.2692V70.032H77.0532V70.512H75.0372V71.152H76.1572V71.472H77.0852V71.792H77.6932V71.952H79.4212V72.272H77.9812V72.912H79.7412V73.072H77.6932V73.552H77.3732V74.192H73.5332ZM86.7812 82.992V82.672H84.2852V82.512H83.0052V82.224H77.8212V82.512H81.1492V82.672H74.3332V82.992H81.5652V83.472H86.6532V82.992H86.7812ZM84.7012 84.112H81.1812V83.632H80.0292V83.472H75.6452V83.632H77.9492V84.112H77.4692V84.432H76.4452V85.072H76.1252V85.232H77.6292V85.712H78.5252V85.872H77.2452V86.352H75.4212V86.992H84.2532V86.352H83.9332V85.872H83.8052V85.712H80.6692V85.232H82.7812V85.072H82.8772V84.432H84.7012V84.112ZM114.796 77.712H116.396V78.352H116.108V78.992H115.82V79.472H115.148V79.632H115.404V79.792H114.508V80.112H116.044V80.592H115.116V80.752H115.148C115.148 80.8587 115.137 80.9653 115.116 81.072C115.116 81.1787 115.116 81.2853 115.116 81.392H115.084C115.063 81.456 115.052 81.552 115.052 81.68V82.032H114.892C114.871 82.0747 114.86 82.128 114.86 82.192C114.86 82.256 114.86 82.3093 114.86 82.352H115.18L115.084 82.992H114.796C114.775 83.0987 114.753 83.2053 114.732 83.312C114.732 83.4187 114.711 83.5253 114.668 83.632H115.02C115.02 83.6533 115.009 83.6747 114.988 83.696C114.988 83.7173 114.988 83.7493 114.988 83.792H115.468C115.468 83.8133 115.457 83.8347 115.436 83.856C115.436 83.8773 115.436 83.9093 115.436 83.952H114.86C114.839 84.0373 114.817 84.1227 114.796 84.208C114.775 84.272 114.753 84.3467 114.732 84.432H114.636L114.444 84.912H114.092C114.071 84.9973 114.039 85.0827 113.996 85.168C113.953 85.232 113.911 85.3067 113.868 85.392H114.156C114.113 85.4987 114.06 85.6053 113.996 85.712H113.804C113.783 85.7973 113.74 85.8827 113.676 85.968C113.633 86.032 113.591 86.1067 113.548 86.192H114.54L114.316 86.512H113.132L112.78 86.992H113.132L112.684 87.472H113.036C113.015 87.4933 112.983 87.5147 112.94 87.536C112.919 87.5573 112.897 87.5893 112.876 87.632H113.26C113.196 87.6747 113.132 87.728 113.068 87.792C113.025 87.856 112.972 87.9093 112.908 87.952H112.3C112.236 87.9947 112.172 88.048 112.108 88.112C112.044 88.176 111.969 88.2293 111.884 88.272H112.108C112.044 88.3147 111.969 88.368 111.884 88.432C111.82 88.496 111.745 88.5493 111.66 88.592H111.596C111.404 88.6987 111.212 88.8053 111.02 88.912C110.828 89.0187 110.625 89.1253 110.412 89.232H110.316C110.252 89.2533 110.188 89.2747 110.124 89.296C110.06 89.3173 109.996 89.3493 109.932 89.392C109.783 89.456 109.633 89.52 109.484 89.584C109.356 89.6267 109.207 89.6693 109.036 89.712H109.004C108.3 89.9253 107.532 90.0853 106.7 90.192H106.732C106.391 90.2347 106.028 90.2667 105.644 90.288C105.281 90.3093 104.919 90.32 104.556 90.32C104.172 90.32 103.799 90.3093 103.436 90.288C103.073 90.2667 102.711 90.2347 102.348 90.192C101.537 90.1067 100.759 89.9467 100.012 89.712H100.044C99.8946 89.6693 99.7453 89.6267 99.596 89.584C99.4466 89.52 99.2973 89.456 99.148 89.392H99.116C99.052 89.3493 98.988 89.3173 98.924 89.296C98.86 89.2747 98.796 89.2533 98.732 89.232H98.828C98.6146 89.1253 98.412 89.0187 98.22 88.912C98.028 88.8053 97.836 88.6987 97.644 88.592H97.708L97.228 88.272H97.036C96.9506 88.2293 96.876 88.176 96.812 88.112C96.748 88.048 96.684 87.9947 96.62 87.952H97.228L96.844 87.632H96.46C96.4386 87.5893 96.4173 87.5573 96.396 87.536C96.3746 87.5147 96.3426 87.4933 96.3 87.472H95.98C95.8946 87.3867 95.8093 87.312 95.724 87.248C95.66 87.1627 95.596 87.0773 95.532 86.992H95.18L94.796 86.512H95.98L95.788 86.192H94.764C94.7213 86.1067 94.6786 86.032 94.636 85.968C94.5933 85.8827 94.5506 85.7973 94.508 85.712H94.7C94.636 85.6053 94.5826 85.4987 94.54 85.392H94.252C94.2093 85.3067 94.1666 85.232 94.124 85.168C94.1026 85.0827 94.0706 84.9973 94.028 84.912H94.412L94.22 84.432H94.316C94.2946 84.3467 94.2733 84.272 94.252 84.208C94.2306 84.1227 94.2093 84.0373 94.188 83.952H94.54C94.5186 83.9093 94.508 83.856 94.508 83.792H94.188C94.188 83.7493 94.1773 83.7173 94.156 83.696C94.156 83.6747 94.156 83.6533 94.156 83.632H94.092C94.0706 83.5253 94.0493 83.4187 94.028 83.312C94.0066 83.2053 93.9853 83.0987 93.964 82.992H94.124C94.1026 82.8853 94.0813 82.7787 94.06 82.672C94.06 82.5653 94.06 82.4587 94.06 82.352H93.868L93.836 82.032H94.06V81.68C94.06 81.6373 94.0493 81.5947 94.028 81.552C94.028 81.488 94.028 81.4347 94.028 81.392H93.612C93.5906 81.2853 93.58 81.1787 93.58 81.072C93.58 80.9653 93.58 80.8587 93.58 80.752H93.804V80.592H93.708V80.112H94.348V79.792H93.228V79.632H93.836V79.472H93.804V78.992H93.644V78.352H93.836V77.712H93.612V77.232H92.428V76.592H93.804C93.8253 76.5493 93.836 76.496 93.836 76.432H94.348V76.272H93.964V75.952H93.996L94.06 75.312H93.996C93.996 75.2267 93.996 75.152 93.996 75.088C94.0173 75.0027 94.0386 74.9173 94.06 74.832H93.964C93.964 74.7467 93.964 74.672 93.964 74.608C93.9853 74.5227 94.0066 74.4373 94.028 74.352H93.964C93.9853 74.2667 94.0066 74.192 94.028 74.128C94.0493 74.0427 94.0706 73.9573 94.092 73.872H93.196C93.196 73.8293 93.196 73.7973 93.196 73.776C93.2173 73.7547 93.228 73.7333 93.228 73.712H94.188L94.284 73.392H94.22L94.284 73.232H94.764C94.7853 73.1893 94.8066 73.136 94.828 73.072C94.8493 73.008 94.8706 72.9547 94.892 72.912H94.572C94.636 72.72 94.7213 72.5067 94.828 72.272H94.732C94.796 72.1653 94.8493 72.0587 94.892 71.952C94.956 71.824 95.02 71.7173 95.084 71.632H95.18L95.276 71.472H94.764L94.86 71.312H95.372L95.468 71.152H95.404L95.788 70.672H95.564L95.98 70.192C96.0866 70.0853 96.1933 69.9787 96.3 69.872C96.428 69.744 96.556 69.6373 96.684 69.552H96.364L96.556 69.392H96.204C96.2466 69.3493 96.2786 69.3173 96.3 69.296C96.3426 69.2747 96.3853 69.2533 96.428 69.232H97.228C97.3133 69.1893 97.3986 69.136 97.484 69.072C97.5693 69.008 97.6546 68.9547 97.74 68.912H97.836C98.0493 68.8053 98.2626 68.6987 98.476 68.592C98.6893 68.464 98.9026 68.3573 99.116 68.272H99.212C99.6386 68.08 100.108 67.92 100.62 67.792H100.78C101.399 67.6213 102.049 67.4933 102.732 67.408C103.415 67.3227 104.119 67.28 104.844 67.28C106.359 67.28 107.703 67.4507 108.876 67.792H108.684C108.919 67.856 109.153 67.9307 109.388 68.016C109.623 68.08 109.847 68.1653 110.06 68.272H109.932C110.167 68.3573 110.38 68.464 110.572 68.592C110.785 68.6987 110.999 68.8053 111.212 68.912H111.084L111.564 69.232H110.764C110.807 69.2533 110.839 69.2747 110.86 69.296C110.903 69.3173 110.945 69.3493 110.988 69.392H111.34C111.383 69.4133 111.425 69.4347 111.468 69.456C111.511 69.4773 111.543 69.5093 111.564 69.552H111.884C112.012 69.6373 112.129 69.744 112.236 69.872C112.364 69.9787 112.481 70.0853 112.588 70.192H112.62C112.705 70.2773 112.78 70.3627 112.844 70.448C112.908 70.512 112.972 70.5867 113.036 70.672H113.26L113.644 71.152H113.708C113.772 71.216 113.815 71.2693 113.836 71.312H113.324L113.42 71.472H113.964L114.06 71.632H113.964C114.028 71.7173 114.081 71.824 114.124 71.952C114.188 72.0587 114.252 72.1653 114.316 72.272H114.412L114.7 72.912H115.02L115.116 73.232H114.636L114.7 73.392H114.764L114.86 73.712H114.764C114.764 73.7333 114.764 73.7547 114.764 73.776C114.785 73.7973 114.796 73.8293 114.796 73.872H113.452C113.495 73.9573 113.516 74.0427 113.516 74.128C113.537 74.192 113.559 74.2667 113.58 74.352H115.244C115.265 74.4373 115.276 74.5227 115.276 74.608C115.297 74.672 115.308 74.7467 115.308 74.832H114.86C114.881 74.9173 114.892 75.0027 114.892 75.088C114.913 75.152 114.924 75.2267 114.924 75.312H115.34L115.404 75.952H114.988V76.048C114.988 76.0693 114.988 76.1013 114.988 76.144C115.009 76.1867 115.02 76.2293 115.02 76.272H115.884V76.432H115.116C115.137 76.4747 115.148 76.528 115.148 76.592H115.724C115.745 76.6987 115.756 76.8053 115.756 76.912C115.756 77.0187 115.756 77.1253 115.756 77.232H114.796V77.712ZM107.788 78.352H108.076V77.712H106.476V77.232H107.436C107.436 77.1253 107.436 77.0187 107.436 76.912C107.436 76.8053 107.425 76.6987 107.404 76.592H106.828C106.828 76.5493 106.817 76.5173 106.796 76.496C106.796 76.4747 106.796 76.4533 106.796 76.432H107.564V76.272H106.7C106.7 76.2293 106.689 76.1973 106.668 76.176C106.668 76.1547 106.668 76.1333 106.668 76.112V75.952H107.052C107.052 75.8453 107.041 75.7387 107.02 75.632C107.02 75.504 107.009 75.3973 106.988 75.312H106.572C106.551 75.2267 106.529 75.152 106.508 75.088C106.487 75.0027 106.455 74.9173 106.412 74.832H106.86C106.796 74.6613 106.711 74.5013 106.604 74.352H104.94C104.833 74.1813 104.663 74.0213 104.428 73.872H105.772C105.644 73.7867 105.548 73.7333 105.484 73.712H105.58C105.26 73.584 104.908 73.52 104.524 73.52C104.14 73.52 103.788 73.584 103.468 73.712H102.54C102.455 73.7333 102.348 73.7867 102.22 73.872H103.116C102.945 73.9787 102.775 74.1387 102.604 74.352H102.668C102.561 74.5013 102.476 74.6613 102.412 74.832H102.508C102.487 74.9173 102.465 75.0027 102.444 75.088C102.423 75.152 102.391 75.2267 102.348 75.312H102.412C102.391 75.3973 102.369 75.504 102.348 75.632C102.348 75.7387 102.348 75.8453 102.348 75.952H102.284V76.272H102.668V76.432H102.156V76.592H100.748V77.232H101.932V77.712H102.156V78.352H101.964V78.992H102.124V79.472H102.156C102.156 79.536 102.167 79.5893 102.188 79.632H101.548V79.792H102.668V80.112H102.028V80.592H102.124V80.752H101.9C101.9 80.8587 101.9 80.9653 101.9 81.072C101.921 81.1787 101.932 81.2853 101.932 81.392H102.38V81.488C102.38 81.5733 102.38 81.6693 102.38 81.776C102.38 81.8613 102.391 81.9467 102.412 82.032H102.188C102.209 82.0747 102.22 82.128 102.22 82.192C102.22 82.256 102.231 82.3093 102.252 82.352H102.444C102.465 82.4587 102.497 82.5653 102.54 82.672C102.583 82.7787 102.625 82.8853 102.668 82.992H102.508C102.636 83.2267 102.807 83.44 103.02 83.632H103.084C103.127 83.6533 103.169 83.6853 103.212 83.728C103.255 83.7493 103.297 83.7707 103.34 83.792H103.628C103.692 83.8133 103.756 83.8453 103.82 83.888C103.884 83.9093 103.948 83.9307 104.012 83.952H103.628C103.884 84.0373 104.183 84.08 104.524 84.08C104.865 84.08 105.164 84.0373 105.42 83.952H105.964C106.028 83.9307 106.092 83.9093 106.156 83.888C106.22 83.8453 106.284 83.8133 106.348 83.792H105.836C105.879 83.7707 105.921 83.7493 105.964 83.728C106.007 83.6853 106.049 83.6533 106.092 83.632H105.74C105.932 83.4827 106.103 83.2693 106.252 82.992H106.54C106.647 82.7573 106.732 82.544 106.796 82.352H106.476C106.497 82.3093 106.508 82.256 106.508 82.192C106.508 82.128 106.519 82.0747 106.54 82.032H106.7C106.721 81.9467 106.732 81.8613 106.732 81.776C106.732 81.6693 106.732 81.5733 106.732 81.488V81.392H106.796C106.796 81.2853 106.796 81.1787 106.796 81.072C106.796 80.9653 106.807 80.8587 106.828 80.752H106.796V80.592H107.724V80.112H106.188V79.792H107.084V79.632H106.828V79.472H107.5V78.992H107.788V78.352ZM141.33 88.272H141.49V88.592H140.658V89.232H138.546C138.546 89.3173 138.525 89.4027 138.482 89.488C138.439 89.5733 138.397 89.648 138.354 89.712H137.266C137.181 89.7973 137.117 89.8507 137.074 89.872H138.354C138.247 89.9573 138.098 90 137.906 90H132.85C132.722 90 132.605 89.9893 132.498 89.968C132.391 89.9253 132.295 89.8933 132.21 89.872H130.898C130.813 89.8293 130.727 89.776 130.642 89.712H131.73C131.623 89.6267 131.538 89.5413 131.474 89.456C131.41 89.3707 131.357 89.3067 131.314 89.264V89.232H133.394L132.978 88.592H133.81L133.586 88.272H133.426L133.106 87.792H129.426L128.978 87.152H129.458L129.042 86.512H127.922L127.794 86.352H129.266L128.946 85.872H129.618L129.298 85.392H127.986L127.57 84.752H129.586L129.49 84.592H128.434L128.242 84.272H127.25L126.834 83.632H126.29L126.194 83.472H127.666L127.346 82.992H125.682V83.472H124.082V83.632H126.258V84.272H126.578V84.592H126.61V84.752H125.682V85.392H124.178V85.872H125.938V86.352H125.618V86.512H125.234V87.152H125.938V87.792H126.226V88.272H124.914V88.592H126.034V89.232H124.626C124.626 89.3173 124.605 89.4027 124.562 89.488C124.519 89.5733 124.477 89.648 124.434 89.712H125.458C125.373 89.7973 125.309 89.8507 125.266 89.872H124.274C124.167 89.9573 124.018 90 123.826 90H118.034C117.821 90 117.661 89.9573 117.554 89.872H118.578C118.535 89.8507 118.471 89.7973 118.386 89.712H117.33C117.287 89.648 117.245 89.5733 117.202 89.488C117.159 89.4027 117.138 89.3173 117.138 89.232H118.514V88.592H117.394V88.272H118.706V87.792H118.418V87.152H117.714V86.512H118.098V86.352H118.418V85.872H116.658V85.392H118.162V84.752H119.09V84.592H119.058V84.272H118.738V83.632H116.562V83.472H118.162V82.992H119.698V82.832H118.002V82.672H118.642V82.032H118.13V81.392H118.162V81.232H117.906V81.072H117.938V80.592H116.722V80.432H117.554V80.112H115.666V79.472H118.834V79.152H116.818V78.512H117.97V78.352H118.162V77.872H118.738V77.552H119.026V77.072H118.194V76.912H117.874V76.592H117.554V75.952H118.162V75.472H119.026V75.152H121.042V74.992H118.546V74.832H117.714V74.352H117.362V73.872H117.938V73.232H118.77V72.752H119.57V72.432H117.97V72.272H118.162V71.632H118.898V71.472H117.394V71.152H118.322V70.512H117.106V70.032H117.906V69.712H115.058V69.232H114.45V68.912H116.594V68.464C116.594 68.3787 116.605 68.3147 116.626 68.272H118.77C118.77 68.1867 118.813 68.08 118.898 67.952H118.322C118.493 67.7173 118.727 67.6 119.026 67.6H124.082C124.317 67.6 124.519 67.632 124.69 67.696C124.861 67.76 124.999 67.8453 125.106 67.952H125.682C125.767 68.0373 125.853 68.144 125.938 68.272H123.794C123.794 68.2933 123.794 68.304 123.794 68.304C123.815 68.304 123.826 68.3147 123.826 68.336L124.178 68.912H122.034L122.226 69.232H122.834L123.122 69.712H125.97L126.162 70.032H125.394L125.682 70.512H126.866L127.282 71.152H126.354L126.546 71.472H128.05L128.146 71.632H127.41L127.794 72.272H127.602L127.698 72.432H129.298L129.49 72.752H128.69L129.01 73.232H128.178L128.562 73.872H127.954L128.242 74.352H128.594L128.914 74.832H129.746L129.842 74.992H130.322V74.832H131.282V74.352H130.354V73.872H130.578V73.232H131.218V72.752H131.986V72.432H130.45V71.632H132.338V71.472H132.306V71.152H130.29V70.512H130.994V70.032H131.922V69.712H129.97V69.232H132.466V68.912H132.274V68.464C132.274 68.3787 132.285 68.3147 132.306 68.272H131.25C131.271 68.1867 131.325 68.08 131.41 67.952H130.322C130.493 67.7173 130.727 67.6 131.026 67.6H136.818C137.117 67.6 137.351 67.7173 137.522 67.952H138.61C138.653 68.0373 138.695 68.144 138.738 68.272H139.794V68.912H139.986V69.232H137.49V69.712H139.442V70.032H138.514V70.512H137.81V71.152H139.826V71.472H139.858V71.632H137.97V72.432H139.506V72.752H138.738V73.232H138.098V73.872H137.874V74.352H138.802V74.832H137.842V74.992H140.082V75.152H138.898V75.472H138.578V75.952H137.522V76.592H136.434V76.912H138.098V77.072H139.186V77.552H138.898V77.872H138.322V78.352H138.13V78.512H136.978V79.152H138.994V79.472H135.826V80.112H137.714V80.432H136.882V80.592H138.098V81.072H138.066V81.232H139.09V81.392H138.386V82.032H138.45V82.672H139.346V82.832H137.81V82.992H138.738V83.472H137.266V83.632H137.778V84.272H138.77V84.592H139.826V84.752H137.778V85.392H139.09V85.872H138.418V86.352H136.978V86.512H138.098V87.152H137.618V87.792H141.33V88.272ZM132.562 74.992H132.338L132.434 75.152H132.562V74.992ZM130.418 75.152L130.61 75.472H129.746L130.034 75.952H131.058V75.472H131.378V75.152H130.418ZM130.002 75.952H129.426L129.81 76.592H130.002V75.952ZM127.858 82.832L127.762 82.672H126.866L126.45 82.032H126.354L125.938 81.392H126.642L126.514 81.232H125.682V81.392H125.65V82.032H126.162V82.672H125.522V82.832H127.858ZM167.129 74.672V74.832H166.361C166.383 74.9387 166.393 75.0453 166.393 75.152C166.393 75.2587 166.393 75.3653 166.393 75.472H160.793C160.793 75.7493 160.655 75.9627 160.377 76.112C160.249 76.1547 160.153 76.176 160.089 76.176H153.561C153.476 76.176 153.391 76.176 153.305 76.176C153.22 76.1547 153.135 76.1333 153.049 76.112H147.833V76.272H150.649C150.628 76.3787 150.617 76.4853 150.617 76.592C150.617 76.6987 150.617 76.8053 150.617 76.912H149.497C149.476 76.9547 149.465 77.008 149.465 77.072C149.465 77.136 149.465 77.1893 149.465 77.232H149.561V77.552H149.081V78.192H150.617V78.352H145.433V78.672H147.065V79.312H150.361V79.472H149.017V79.632H148.153V80.272H150.617C150.639 80.3573 150.649 80.4427 150.649 80.528C150.649 80.592 150.649 80.6667 150.649 80.752H151.545V80.912H147.417V81.232H146.489V81.392H150.649V81.424H157.049C157.455 81.424 157.689 81.6267 157.753 82.032H162.489V82.512H162.265L162.201 83.152H161.849L161.817 83.472H162.649C162.649 83.536 162.639 83.5893 162.617 83.632H162.425C162.404 83.6747 162.393 83.728 162.393 83.792H163.449L163.353 84.272H162.361C162.361 84.2933 162.351 84.3147 162.329 84.336C162.329 84.3573 162.329 84.3893 162.329 84.432H162.073C162.052 84.5173 162.02 84.6027 161.977 84.688C161.956 84.752 161.935 84.8267 161.913 84.912H162.297C162.297 84.9333 162.276 84.9867 162.233 85.072H161.593C161.551 85.1787 161.497 85.2853 161.433 85.392C161.391 85.4987 161.337 85.6053 161.273 85.712H161.913L161.625 86.192H161.913L161.593 86.672H161.401C161.316 86.7787 161.22 86.8853 161.113 86.992C161.028 87.0987 160.932 87.2053 160.825 87.312H160.569C160.548 87.3333 160.527 87.3547 160.505 87.376C160.484 87.3973 160.452 87.4293 160.409 87.472H159.033L158.873 87.632H165.305C165.177 87.7387 165.049 87.8453 164.921 87.952C164.793 88.0587 164.655 88.1653 164.505 88.272H164.153C163.94 88.4213 163.684 88.5813 163.385 88.752H156.633C156.42 88.88 156.196 88.9973 155.961 89.104C155.727 89.1893 155.492 89.2853 155.257 89.392H160.537C160.473 89.4133 160.399 89.4347 160.313 89.456C160.249 89.4773 160.175 89.5093 160.089 89.552H158.809C158.724 89.5733 158.639 89.5947 158.553 89.616C158.468 89.6373 158.383 89.6693 158.297 89.712H155.993C155.225 89.9253 154.436 90.0853 153.625 90.192H154.137C153.796 90.2347 153.444 90.2667 153.081 90.288C152.719 90.3093 152.356 90.32 151.993 90.32C151.588 90.32 151.193 90.3093 150.809 90.288C150.447 90.2667 150.084 90.2347 149.721 90.192H149.209C148.356 90.0853 147.567 89.9253 146.841 89.712H149.145C149.06 89.6693 148.975 89.6373 148.889 89.616C148.825 89.5947 148.751 89.5733 148.665 89.552H149.977L149.529 89.392H144.249C144.036 89.2853 143.812 89.1893 143.577 89.104C143.364 88.9973 143.151 88.88 142.937 88.752H149.721C149.593 88.6667 149.465 88.592 149.337 88.528C149.209 88.4427 149.092 88.3573 148.985 88.272H149.337C149.081 88.08 148.836 87.8667 148.601 87.632H142.137C142.116 87.5893 142.095 87.5573 142.073 87.536C142.052 87.5147 142.02 87.4933 141.977 87.472H143.385C143.364 87.4293 143.332 87.3973 143.289 87.376C143.268 87.3547 143.247 87.3333 143.225 87.312H143.481C143.289 87.0987 143.108 86.8853 142.937 86.672H143.129L142.841 86.192H142.553L142.265 85.712H141.625L141.337 85.072H142.009L141.945 84.912H141.529C141.508 84.8267 141.487 84.752 141.465 84.688C141.444 84.6027 141.412 84.5173 141.369 84.432H141.625L141.561 84.272H142.553C142.532 84.1867 142.511 84.112 142.489 84.048C142.468 83.9627 142.447 83.8773 142.425 83.792H141.913C141.892 83.7493 141.881 83.696 141.881 83.632H141.337C141.316 83.5893 141.305 83.536 141.305 83.472H141.337C141.337 83.3867 141.316 83.28 141.273 83.152H139.449L139.353 82.512H141.817C141.796 82.4267 141.785 82.352 141.785 82.288C141.785 82.2027 141.775 82.1173 141.753 82.032H142.361C142.361 81.968 142.361 81.904 142.361 81.84C142.361 81.776 142.351 81.712 142.329 81.648V81.392H138.169V81.232H139.097V80.912H143.225V80.752H142.329C142.329 80.6667 142.319 80.592 142.297 80.528C142.297 80.4427 142.297 80.3573 142.297 80.272H139.833V79.632H140.697V79.472H142.041V79.312H138.745V78.672H137.113V78.352H142.297V78.192H140.761V77.552H141.241V77.232H141.145V76.912H142.297V76.272H139.513V76.112H145.657V75.952C145.679 75.8667 145.689 75.792 145.689 75.728C145.689 75.6427 145.689 75.5573 145.689 75.472H143.993C143.993 75.3653 143.993 75.2587 143.993 75.152C144.015 75.0453 144.036 74.9387 144.057 74.832H145.081C145.103 74.7893 145.113 74.736 145.113 74.672H138.489C138.511 74.6293 138.521 74.576 138.521 74.512C138.521 74.448 138.532 74.3947 138.553 74.352H144.377L144.537 73.712H143.225L143.321 73.392H141.177L141.241 73.232H141.945C141.967 73.1893 141.988 73.136 142.009 73.072C142.031 73.008 142.052 72.9547 142.073 72.912H141.721L141.849 72.592H142.009C142.052 72.5067 142.095 72.432 142.137 72.368C142.18 72.2827 142.212 72.1973 142.233 72.112H142.265L142.553 71.632H142.457C142.5 71.5467 142.543 71.472 142.585 71.408C142.649 71.3227 142.713 71.2373 142.777 71.152H142.521C142.607 71.0453 142.692 70.9387 142.777 70.832C142.863 70.704 142.948 70.5973 143.033 70.512H142.745C142.767 70.4693 142.788 70.4373 142.809 70.416C142.831 70.3947 142.852 70.3733 142.873 70.352H142.553L142.713 70.192H142.649C142.692 70.1493 142.724 70.1173 142.745 70.096C142.767 70.0747 142.788 70.0533 142.809 70.032H142.233C142.276 69.9893 142.329 69.936 142.393 69.872C142.457 69.808 142.521 69.7547 142.585 69.712H143.353C143.46 69.6267 143.567 69.552 143.673 69.488C143.78 69.4027 143.887 69.3173 143.993 69.232H143.641L143.897 69.072H143.353C143.396 69.0293 143.439 68.9973 143.481 68.976C143.524 68.9547 143.567 68.9333 143.609 68.912H145.273C145.423 68.8267 145.572 68.752 145.721 68.688C145.871 68.6027 146.02 68.5173 146.169 68.432H146.073C146.201 68.368 146.329 68.3147 146.457 68.272C146.585 68.208 146.713 68.1547 146.841 68.112H147.449C147.513 68.0693 147.577 68.0373 147.641 68.016C147.727 67.9947 147.812 67.9733 147.897 67.952H146.937C147.577 67.7173 148.26 67.5573 148.985 67.472H149.849C150.681 67.344 151.556 67.28 152.473 67.28C153.369 67.28 154.233 67.344 155.065 67.472H154.233C154.937 67.5573 155.641 67.7173 156.345 67.952H157.305C157.391 67.9733 157.465 67.9947 157.529 68.016C157.615 68.0373 157.7 68.0693 157.785 68.112H157.177C157.497 68.2187 157.764 68.3253 157.977 68.432H158.073C158.244 68.5173 158.404 68.6027 158.553 68.688C158.703 68.752 158.852 68.8267 159.001 68.912H157.369C157.412 68.9333 157.455 68.9547 157.497 68.976C157.54 68.9973 157.583 69.0293 157.625 69.072H158.169C158.212 69.0933 158.255 69.1147 158.297 69.136C158.34 69.1573 158.372 69.1893 158.393 69.232H158.745L159.385 69.712H158.585L158.969 70.032H159.545L159.737 70.192H159.769L159.929 70.352H160.249L160.409 70.512H160.697C160.783 70.5973 160.868 70.704 160.953 70.832C161.039 70.9387 161.124 71.0453 161.209 71.152H161.433C161.497 71.2373 161.551 71.3227 161.593 71.408C161.657 71.472 161.711 71.5467 161.753 71.632H161.849C161.892 71.7173 161.935 71.8027 161.977 71.888C162.02 71.952 162.063 72.0267 162.105 72.112H162.041C162.084 72.1973 162.127 72.2827 162.169 72.368C162.212 72.432 162.244 72.5067 162.265 72.592H162.105L162.201 72.912H162.553L162.649 73.232H161.945C161.945 73.2533 161.945 73.2747 161.945 73.296C161.967 73.3173 161.977 73.3493 161.977 73.392H164.121C164.121 73.4773 164.143 73.584 164.185 73.712H161.273L161.369 74.352H163.225L163.257 74.672H167.129ZM152.441 73.712H154.713C154.372 73.584 153.988 73.52 153.561 73.52C153.135 73.52 152.761 73.584 152.441 73.712ZM157.977 75.248C157.956 75.1627 157.935 75.088 157.913 75.024C157.892 74.96 157.86 74.896 157.817 74.832H158.585L158.489 74.672H154.649C154.628 74.608 154.596 74.5547 154.553 74.512C154.511 74.448 154.468 74.3947 154.425 74.352H147.161C147.14 74.3947 147.108 74.448 147.065 74.512C147.044 74.5547 147.012 74.608 146.969 74.672H153.593L153.529 74.832H152.505C152.463 74.9173 152.431 75.024 152.409 75.152C152.388 75.2587 152.367 75.3653 152.345 75.472H158.073L157.977 75.248ZM154.201 82.032H150.105L150.201 82.512H147.737C147.78 82.64 147.823 82.7573 147.865 82.864C147.908 82.9493 147.961 83.0453 148.025 83.152H149.849C149.892 83.216 149.935 83.28 149.977 83.344C150.02 83.3867 150.063 83.4293 150.105 83.472H150.041L150.201 83.632H150.745C150.788 83.6533 150.831 83.6853 150.873 83.728C150.916 83.7493 150.959 83.7707 151.001 83.792H151.513C151.876 83.984 152.313 84.08 152.825 84.08C153.337 84.08 153.764 83.984 154.105 83.792H153.049L153.305 83.632H153.497L153.689 83.472H152.857C152.9 83.4293 152.943 83.3867 152.985 83.344C153.049 83.28 153.092 83.216 153.113 83.152H153.465C153.593 82.96 153.7 82.7467 153.785 82.512H154.009L154.073 82.352C154.116 82.224 154.159 82.1173 154.201 82.032ZM187.91 82.512V82.672H190.406V82.992H190.278V83.472H183.654V83.632H184.806V84.112H188.326V84.432H186.502V85.072H186.406V85.232H184.294V85.712H187.43V85.872H187.558V86.352H187.878V86.992H181.702V87.472H188.23V87.792H186.054V88.272H185.766V88.592H186.502V88.912H186.022V89.232H187.142L187.046 89.552H188.55C188.508 89.616 188.454 89.68 188.39 89.744C188.348 89.7867 188.294 89.8293 188.23 89.872H188.966C188.86 89.9573 188.71 90 188.518 90H182.246C182.054 90 181.905 89.9573 181.798 89.872H181.062C180.913 89.808 180.806 89.7013 180.742 89.552H179.238L179.142 89.232H178.022V88.912H178.502V88.592H177.766V88.272H178.054V87.792H180.23V87.472H174.438V87.792H171.782V88.272H173.606V88.592H173.158V88.912H174.822V89.232H173.03L172.934 89.552H173.638C173.553 89.7013 173.457 89.808 173.35 89.872H172.582C172.476 89.9573 172.326 90 172.134 90H165.862C165.649 90 165.489 89.9573 165.382 89.872H166.15C166.044 89.808 165.948 89.7013 165.862 89.552H165.126C165.062 89.4453 165.03 89.3387 165.03 89.232H166.822V88.912H165.158V88.592H165.606V88.272H163.782V87.792H166.438V87.472H167.974V86.992H163.046V86.352H164.87V85.872H166.15V85.712H165.254V85.232H163.75V85.072H164.07V84.432H165.094V84.112H165.574V83.632H163.27V83.472H169.19V82.992H161.958V82.672H168.774V82.512H165.446V82.032H167.366V81.872H167.75V81.712H167.59V81.072H164.422V80.592H165.478V80.432H165.19V79.952H165.318V79.792H165.35V79.472H165.382V79.312H164.966V79.152H163.718V78.672H164.134V78.192H163.494V77.712H165.094V77.072H164.742V76.752H162.406V76.592H166.15V76.272H167.046V76.112H158.406V75.952H163.494V75.792H165.318V75.312H162.054V74.672H161.158V74.192H164.998V73.552H165.318V73.072H167.366V72.912H165.606V72.272H167.046V71.952H165.318V71.792H164.71V71.472H163.782V71.152H162.662V70.512H164.678V70.032H165.894V69.552H165.318V69.232H164.518V69.072H164.966V68.752H164.87V68.464C164.87 68.3147 164.902 68.1973 164.966 68.112H167.014C167.036 68.048 167.068 67.9947 167.11 67.952C167.153 67.888 167.196 67.8347 167.238 67.792H172.166C172.294 67.664 172.476 67.6 172.71 67.6H184.998C185.212 67.6 185.393 67.664 185.542 67.792H190.47C190.513 67.8347 190.556 67.888 190.598 67.952C190.662 67.9947 190.705 68.048 190.726 68.112H186.598C186.641 68.24 186.662 68.3573 186.662 68.464V68.752H186.822V69.072H187.27V69.232H186.406V69.552H186.022V70.032H187.27V70.512H184.262V71.152H187.718V71.472H185.222V71.792H186.246V71.952H185.734V72.272H188.134V72.912H184.614V73.072H187.334V73.552H186.854V74.192H184.294V74.672H183.238V75.312H186.502V75.792H184.678V75.952H179.59V76.112H188.23V76.272H187.334V76.592H183.59V76.752H185.926V77.072H186.278V77.712H184.678V78.192H185.318V78.672H184.902V79.152H186.15V79.312H186.566V79.472H186.534V79.792H186.502V79.952H186.374V80.432H186.662V80.592H185.606V81.072H188.774V81.712H188.934V81.872H188.55V82.032H186.63V82.512H187.91ZM169.158 74.192V74.672H170.054V75.184H175.238V74.672H176.294V74.192H178.854V73.552H179.334V73.072H176.614V72.912H180.134V72.272H177.734V71.952H178.246V71.792H177.222V71.472H179.718V71.152H176.262V70.512H179.27V70.032H178.022V69.552H178.406V69.232H179.27V69.072H178.822V68.752H178.662V68.464C178.662 68.3573 178.684 68.24 178.726 68.112H182.854C182.897 68.048 182.94 67.9947 182.982 67.952C183.025 67.888 183.068 67.8347 183.11 67.792H174.598C174.705 67.8773 174.79 67.984 174.854 68.112H172.806C172.849 68.176 172.87 68.2933 172.87 68.464V68.752H172.966V69.072H172.518V69.232H173.318V69.552H173.894V70.032H172.678V70.512H170.662V71.152H171.782V71.472H172.71V71.792H173.318V71.952H175.046V72.272H173.606V72.912H175.366V73.072H173.318V73.552H172.998V74.192H169.158ZM182.406 82.992V82.672H179.91V82.512H178.63V82.224H173.446V82.512H176.774V82.672H169.958V82.992H177.19V83.472H182.278V82.992H182.406ZM180.326 84.112H176.806V83.632H175.654V83.472H171.27V83.632H173.574V84.112H173.094V84.432H172.07V85.072H171.75V85.232H173.254V85.712H174.15V85.872H172.87V86.352H171.046V86.992H179.878V86.352H179.558V85.872H179.43V85.712H176.294V85.232H178.406V85.072H178.502V84.432H180.326V84.112ZM210.421 77.712H212.021V78.352H211.733V78.992H211.445V79.472H210.773V79.632H211.029V79.792H210.133V80.112H211.669V80.592H210.741V80.752H210.773C210.773 80.8587 210.762 80.9653 210.741 81.072C210.741 81.1787 210.741 81.2853 210.741 81.392H210.709C210.688 81.456 210.677 81.552 210.677 81.68V82.032H210.517C210.496 82.0747 210.485 82.128 210.485 82.192C210.485 82.256 210.485 82.3093 210.485 82.352H210.805L210.709 82.992H210.421C210.4 83.0987 210.378 83.2053 210.357 83.312C210.357 83.4187 210.336 83.5253 210.293 83.632H210.645C210.645 83.6533 210.634 83.6747 210.613 83.696C210.613 83.7173 210.613 83.7493 210.613 83.792H211.093C211.093 83.8133 211.082 83.8347 211.061 83.856C211.061 83.8773 211.061 83.9093 211.061 83.952H210.485C210.464 84.0373 210.442 84.1227 210.421 84.208C210.4 84.272 210.378 84.3467 210.357 84.432H210.261L210.069 84.912H209.717C209.696 84.9973 209.664 85.0827 209.621 85.168C209.578 85.232 209.536 85.3067 209.493 85.392H209.781C209.738 85.4987 209.685 85.6053 209.621 85.712H209.429C209.408 85.7973 209.365 85.8827 209.301 85.968C209.258 86.032 209.216 86.1067 209.173 86.192H210.165L209.941 86.512H208.757L208.405 86.992H208.757L208.309 87.472H208.661C208.64 87.4933 208.608 87.5147 208.565 87.536C208.544 87.5573 208.522 87.5893 208.501 87.632H208.885C208.821 87.6747 208.757 87.728 208.693 87.792C208.65 87.856 208.597 87.9093 208.533 87.952H207.925C207.861 87.9947 207.797 88.048 207.733 88.112C207.669 88.176 207.594 88.2293 207.509 88.272H207.733C207.669 88.3147 207.594 88.368 207.509 88.432C207.445 88.496 207.37 88.5493 207.285 88.592H207.221C207.029 88.6987 206.837 88.8053 206.645 88.912C206.453 89.0187 206.25 89.1253 206.037 89.232H205.941C205.877 89.2533 205.813 89.2747 205.749 89.296C205.685 89.3173 205.621 89.3493 205.557 89.392C205.408 89.456 205.258 89.52 205.109 89.584C204.981 89.6267 204.832 89.6693 204.661 89.712H204.629C203.925 89.9253 203.157 90.0853 202.325 90.192H202.357C202.016 90.2347 201.653 90.2667 201.269 90.288C200.906 90.3093 200.544 90.32 200.181 90.32C199.797 90.32 199.424 90.3093 199.061 90.288C198.698 90.2667 198.336 90.2347 197.973 90.192C197.162 90.1067 196.384 89.9467 195.637 89.712H195.669C195.52 89.6693 195.37 89.6267 195.221 89.584C195.072 89.52 194.922 89.456 194.773 89.392H194.741C194.677 89.3493 194.613 89.3173 194.549 89.296C194.485 89.2747 194.421 89.2533 194.357 89.232H194.453C194.24 89.1253 194.037 89.0187 193.845 88.912C193.653 88.8053 193.461 88.6987 193.269 88.592H193.333L192.853 88.272H192.661C192.576 88.2293 192.501 88.176 192.437 88.112C192.373 88.048 192.309 87.9947 192.245 87.952H192.853L192.469 87.632H192.085C192.064 87.5893 192.042 87.5573 192.021 87.536C192 87.5147 191.968 87.4933 191.925 87.472H191.605C191.52 87.3867 191.434 87.312 191.349 87.248C191.285 87.1627 191.221 87.0773 191.157 86.992H190.805L190.421 86.512H191.605L191.413 86.192H190.389C190.346 86.1067 190.304 86.032 190.261 85.968C190.218 85.8827 190.176 85.7973 190.133 85.712H190.325C190.261 85.6053 190.208 85.4987 190.165 85.392H189.877C189.834 85.3067 189.792 85.232 189.749 85.168C189.728 85.0827 189.696 84.9973 189.653 84.912H190.037L189.845 84.432H189.941C189.92 84.3467 189.898 84.272 189.877 84.208C189.856 84.1227 189.834 84.0373 189.813 83.952H190.165C190.144 83.9093 190.133 83.856 190.133 83.792H189.813C189.813 83.7493 189.802 83.7173 189.781 83.696C189.781 83.6747 189.781 83.6533 189.781 83.632H189.717C189.696 83.5253 189.674 83.4187 189.653 83.312C189.632 83.2053 189.61 83.0987 189.589 82.992H189.749C189.728 82.8853 189.706 82.7787 189.685 82.672C189.685 82.5653 189.685 82.4587 189.685 82.352H189.493L189.461 82.032H189.685V81.68C189.685 81.6373 189.674 81.5947 189.653 81.552C189.653 81.488 189.653 81.4347 189.653 81.392H189.237C189.216 81.2853 189.205 81.1787 189.205 81.072C189.205 80.9653 189.205 80.8587 189.205 80.752H189.429V80.592H189.333V80.112H189.973V79.792H188.853V79.632H189.461V79.472H189.429V78.992H189.269V78.352H189.461V77.712H189.237V77.232H188.053V76.592H189.429C189.45 76.5493 189.461 76.496 189.461 76.432H189.973V76.272H189.589V75.952H189.621L189.685 75.312H189.621C189.621 75.2267 189.621 75.152 189.621 75.088C189.642 75.0027 189.664 74.9173 189.685 74.832H189.589C189.589 74.7467 189.589 74.672 189.589 74.608C189.61 74.5227 189.632 74.4373 189.653 74.352H189.589C189.61 74.2667 189.632 74.192 189.653 74.128C189.674 74.0427 189.696 73.9573 189.717 73.872H188.821C188.821 73.8293 188.821 73.7973 188.821 73.776C188.842 73.7547 188.853 73.7333 188.853 73.712H189.813L189.909 73.392H189.845L189.909 73.232H190.389C190.41 73.1893 190.432 73.136 190.453 73.072C190.474 73.008 190.496 72.9547 190.517 72.912H190.197C190.261 72.72 190.346 72.5067 190.453 72.272H190.357C190.421 72.1653 190.474 72.0587 190.517 71.952C190.581 71.824 190.645 71.7173 190.709 71.632H190.805L190.901 71.472H190.389L190.485 71.312H190.997L191.093 71.152H191.029L191.413 70.672H191.189L191.605 70.192C191.712 70.0853 191.818 69.9787 191.925 69.872C192.053 69.744 192.181 69.6373 192.309 69.552H191.989L192.181 69.392H191.829C191.872 69.3493 191.904 69.3173 191.925 69.296C191.968 69.2747 192.01 69.2533 192.053 69.232H192.853C192.938 69.1893 193.024 69.136 193.109 69.072C193.194 69.008 193.28 68.9547 193.365 68.912H193.461C193.674 68.8053 193.888 68.6987 194.101 68.592C194.314 68.464 194.528 68.3573 194.741 68.272H194.837C195.264 68.08 195.733 67.92 196.245 67.792H196.405C197.024 67.6213 197.674 67.4933 198.357 67.408C199.04 67.3227 199.744 67.28 200.469 67.28C201.984 67.28 203.328 67.4507 204.501 67.792H204.309C204.544 67.856 204.778 67.9307 205.013 68.016C205.248 68.08 205.472 68.1653 205.685 68.272H205.557C205.792 68.3573 206.005 68.464 206.197 68.592C206.41 68.6987 206.624 68.8053 206.837 68.912H206.709L207.189 69.232H206.389C206.432 69.2533 206.464 69.2747 206.485 69.296C206.528 69.3173 206.57 69.3493 206.613 69.392H206.965C207.008 69.4133 207.05 69.4347 207.093 69.456C207.136 69.4773 207.168 69.5093 207.189 69.552H207.509C207.637 69.6373 207.754 69.744 207.861 69.872C207.989 69.9787 208.106 70.0853 208.213 70.192H208.245C208.33 70.2773 208.405 70.3627 208.469 70.448C208.533 70.512 208.597 70.5867 208.661 70.672H208.885L209.269 71.152H209.333C209.397 71.216 209.44 71.2693 209.461 71.312H208.949L209.045 71.472H209.589L209.685 71.632H209.589C209.653 71.7173 209.706 71.824 209.749 71.952C209.813 72.0587 209.877 72.1653 209.941 72.272H210.037L210.325 72.912H210.645L210.741 73.232H210.261L210.325 73.392H210.389L210.485 73.712H210.389C210.389 73.7333 210.389 73.7547 210.389 73.776C210.41 73.7973 210.421 73.8293 210.421 73.872H209.077C209.12 73.9573 209.141 74.0427 209.141 74.128C209.162 74.192 209.184 74.2667 209.205 74.352H210.869C210.89 74.4373 210.901 74.5227 210.901 74.608C210.922 74.672 210.933 74.7467 210.933 74.832H210.485C210.506 74.9173 210.517 75.0027 210.517 75.088C210.538 75.152 210.549 75.2267 210.549 75.312H210.965L211.029 75.952H210.613V76.048C210.613 76.0693 210.613 76.1013 210.613 76.144C210.634 76.1867 210.645 76.2293 210.645 76.272H211.509V76.432H210.741C210.762 76.4747 210.773 76.528 210.773 76.592H211.349C211.37 76.6987 211.381 76.8053 211.381 76.912C211.381 77.0187 211.381 77.1253 211.381 77.232H210.421V77.712ZM203.413 78.352H203.701V77.712H202.101V77.232H203.061C203.061 77.1253 203.061 77.0187 203.061 76.912C203.061 76.8053 203.05 76.6987 203.029 76.592H202.453C202.453 76.5493 202.442 76.5173 202.421 76.496C202.421 76.4747 202.421 76.4533 202.421 76.432H203.189V76.272H202.325C202.325 76.2293 202.314 76.1973 202.293 76.176C202.293 76.1547 202.293 76.1333 202.293 76.112V75.952H202.677C202.677 75.8453 202.666 75.7387 202.645 75.632C202.645 75.504 202.634 75.3973 202.613 75.312H202.197C202.176 75.2267 202.154 75.152 202.133 75.088C202.112 75.0027 202.08 74.9173 202.037 74.832H202.485C202.421 74.6613 202.336 74.5013 202.229 74.352H200.565C200.458 74.1813 200.288 74.0213 200.053 73.872H201.397C201.269 73.7867 201.173 73.7333 201.109 73.712H201.205C200.885 73.584 200.533 73.52 200.149 73.52C199.765 73.52 199.413 73.584 199.093 73.712H198.165C198.08 73.7333 197.973 73.7867 197.845 73.872H198.741C198.57 73.9787 198.4 74.1387 198.229 74.352H198.293C198.186 74.5013 198.101 74.6613 198.037 74.832H198.133C198.112 74.9173 198.09 75.0027 198.069 75.088C198.048 75.152 198.016 75.2267 197.973 75.312H198.037C198.016 75.3973 197.994 75.504 197.973 75.632C197.973 75.7387 197.973 75.8453 197.973 75.952H197.909V76.272H198.293V76.432H197.781V76.592H196.373V77.232H197.557V77.712H197.781V78.352H197.589V78.992H197.749V79.472H197.781C197.781 79.536 197.792 79.5893 197.813 79.632H197.173V79.792H198.293V80.112H197.653V80.592H197.749V80.752H197.525C197.525 80.8587 197.525 80.9653 197.525 81.072C197.546 81.1787 197.557 81.2853 197.557 81.392H198.005V81.488C198.005 81.5733 198.005 81.6693 198.005 81.776C198.005 81.8613 198.016 81.9467 198.037 82.032H197.813C197.834 82.0747 197.845 82.128 197.845 82.192C197.845 82.256 197.856 82.3093 197.877 82.352H198.069C198.09 82.4587 198.122 82.5653 198.165 82.672C198.208 82.7787 198.25 82.8853 198.293 82.992H198.133C198.261 83.2267 198.432 83.44 198.645 83.632H198.709C198.752 83.6533 198.794 83.6853 198.837 83.728C198.88 83.7493 198.922 83.7707 198.965 83.792H199.253C199.317 83.8133 199.381 83.8453 199.445 83.888C199.509 83.9093 199.573 83.9307 199.637 83.952H199.253C199.509 84.0373 199.808 84.08 200.149 84.08C200.49 84.08 200.789 84.0373 201.045 83.952H201.589C201.653 83.9307 201.717 83.9093 201.781 83.888C201.845 83.8453 201.909 83.8133 201.973 83.792H201.461C201.504 83.7707 201.546 83.7493 201.589 83.728C201.632 83.6853 201.674 83.6533 201.717 83.632H201.365C201.557 83.4827 201.728 83.2693 201.877 82.992H202.165C202.272 82.7573 202.357 82.544 202.421 82.352H202.101C202.122 82.3093 202.133 82.256 202.133 82.192C202.133 82.128 202.144 82.0747 202.165 82.032H202.325C202.346 81.9467 202.357 81.8613 202.357 81.776C202.357 81.6693 202.357 81.5733 202.357 81.488V81.392H202.421C202.421 81.2853 202.421 81.1787 202.421 81.072C202.421 80.9653 202.432 80.8587 202.453 80.752H202.421V80.592H203.349V80.112H201.813V79.792H202.709V79.632H202.453V79.472H203.125V78.992H203.413V78.352Z" fill="white"/>
<path d="M24.032 59.168C23.6053 59.5093 23.2 60.0427 22.816 60.768C22.4747 61.536 22.2827 62.2187 22.24 62.816C21.984 62.4747 21.792 62.048 21.664 61.536C21.536 61.024 21.472 60.4907 21.472 59.936C21.3013 60.6613 21.024 61.408 20.64 62.176C20.256 62.944 19.8507 63.5627 19.424 64.032C19.808 63.3067 20.0213 62.3893 20.064 61.28C20.1493 60.1707 20.064 59.2107 19.808 58.4C19.552 59.296 19.0827 60.2773 18.4 61.344C17.7173 62.4107 16.992 63.1573 16.224 63.584C16.6933 62.816 16.928 61.792 16.928 60.512C16.9707 59.232 16.8853 58.1653 16.672 57.312C16.16 58.208 15.392 59.104 14.368 60C13.344 60.9387 12.3627 61.5787 11.424 61.92C12.0213 61.1093 12.512 60.0213 12.896 58.656C13.3227 57.2907 13.408 56.1387 13.152 55.2C12.6827 55.6693 11.9147 56.0533 10.848 56.352C9.824 56.6507 8.992 56.736 8.352 56.608C8.82133 56.1387 9.26933 55.4133 9.696 54.432C10.1227 53.4507 10.3147 52.64 10.272 52C9.33333 51.7867 8.20267 51.7867 6.88 52C5.6 52.1707 4.53333 52.4907 3.68 52.96C4.10667 52.1067 4.81067 51.232 5.792 50.336C6.77333 49.3973 7.712 48.7787 8.608 48.48C7.88267 48.0107 6.88 47.6693 5.6 47.456C4.32 47.2 3.25333 47.1787 2.4 47.392C2.784 46.7093 3.44533 46.0693 4.384 45.472C5.32267 44.832 6.21867 44.384 7.072 44.128C6.09067 44.2987 5.024 44.2987 3.872 44.128C2.67733 43.9147 1.696 43.5733 0.928 43.104C1.952 43.232 3.104 43.1467 4.384 42.848C5.664 42.5493 6.73067 42.144 7.584 41.632C6.816 41.632 5.89867 41.4187 4.832 40.992C3.808 40.5227 3.01867 40.032 2.464 39.52C3.232 39.52 4.128 39.2853 5.152 38.816C6.21867 38.304 7.02933 37.7707 7.584 37.216C6.90133 36.576 5.94133 36.064 4.704 35.68C3.46667 35.2533 2.4 35.104 1.504 35.232C2.18667 34.6347 3.14667 34.1653 4.384 33.824C5.62133 33.44 6.688 33.2907 7.584 33.376C6.98667 33.2907 6.28267 32.9707 5.472 32.416C4.704 31.8187 4.14933 31.2853 3.808 30.816C4.40533 30.7733 5.13067 30.5387 5.984 30.112C6.88 29.6853 7.54133 29.2587 7.968 28.832C7.072 28.6613 6.09067 28.2347 5.024 27.552C3.95733 26.8693 3.21067 26.144 2.784 25.376C3.552 25.8027 4.55467 25.9947 5.792 25.952C7.072 25.8667 8.13867 25.6747 8.992 25.376C8.43733 24.48 7.56267 23.648 6.368 22.88C5.17333 22.0693 4.064 21.6213 3.04 21.536C4.02133 21.4507 5.13067 21.6213 6.368 22.048C5.81333 21.4507 5.36533 20.8747 5.024 20.32C5.536 21.0453 6.32533 21.664 7.392 22.176C8.50133 22.6453 9.48267 22.9013 10.336 22.944C10.208 21.8773 9.80267 20.6827 9.12 19.36C8.48 18.0373 7.75467 17.0347 6.944 16.352C8.01067 16.352 9.20533 16.7147 10.528 17.44C11.8933 18.1227 12.9173 18.8693 13.6 19.68C13.5147 18.6133 13.1307 17.4613 12.448 16.224C11.7653 14.944 10.9973 13.984 10.144 13.344C11.0827 13.8133 12 14.6027 12.896 15.712C13.792 16.8213 14.368 17.9093 14.624 18.976C14.8373 17.952 14.7307 16.7787 14.304 15.456C13.92 14.1333 13.4293 13.0453 12.832 12.192C14.0693 12.96 15.1573 14.048 16.096 15.456C15.8827 14.7733 15.7333 14.0693 15.648 13.344C15.6053 12.6187 15.6693 11.9787 15.84 11.424C15.9253 12.3627 16.2667 13.3867 16.864 14.496C17.4613 15.5627 18.1227 16.416 18.848 17.056C18.6347 16.672 18.4853 15.904 18.4 14.752C18.3147 13.5573 18.2507 12.2773 18.208 10.912C18.208 9.504 18.2507 8.224 18.336 7.072C18.4213 5.92 18.5493 5.13066 18.72 4.704C18.72 5.13066 18.912 5.89866 19.296 7.008C19.68 8.11733 20.128 9.33333 20.64 10.656C21.1947 11.936 21.728 13.088 22.24 14.112C22.7947 15.136 23.2427 15.7973 23.584 16.096C23.712 15.7547 23.8187 15.136 23.904 14.24C24.032 13.344 24.096 12.3627 24.096 11.296C24.1387 10.2293 24.1387 9.248 24.096 8.352C24.0533 7.456 23.9467 6.85866 23.776 6.56C23.9467 6.85866 24.16 7.43466 24.416 8.288C24.672 9.14133 24.8853 10.1013 25.056 11.168C25.2693 12.192 25.44 13.152 25.568 14.048C25.696 14.944 25.7173 15.5627 25.632 15.904C25.9733 15.2213 26.2293 14.3893 26.4 13.408C26.5707 12.384 26.5067 11.5307 26.208 10.848C26.6773 11.6587 27.0187 12.576 27.232 13.6C27.36 12.704 27.616 11.808 28 10.912C28.4267 10.016 28.8747 9.26933 29.344 8.672C29.1307 9.35467 29.0667 10.1653 29.152 11.104C29.28 12.0427 29.4933 12.96 29.792 13.856C30.1333 14.7093 30.5387 15.4133 31.008 15.968C31.136 14.9013 31.5413 13.7067 32.224 12.384C32.9493 11.0613 33.7173 10.0587 34.528 9.376C34.3147 10.0587 34.2293 10.8693 34.272 11.808C34.3573 12.7467 34.528 13.664 34.784 14.56C35.0827 15.456 35.424 16.1813 35.808 16.736C35.9787 15.712 36.4053 14.6027 37.088 13.408C37.8133 12.2133 38.5813 11.3173 39.392 10.72C38.9653 11.616 38.7093 12.768 38.624 14.176C38.5813 15.5413 38.7093 16.7147 39.008 17.696C39.1787 16.7147 39.6267 15.6693 40.352 14.56C41.0773 13.408 41.888 12.576 42.784 12.064C42.144 12.8747 41.6747 13.9413 41.376 15.264C41.0773 16.544 40.992 17.6747 41.12 18.656C41.7173 18.4 42.336 17.9733 42.976 17.376C43.616 16.736 44.064 16.1173 44.32 15.52C44.3627 16.16 44.256 16.9067 44 17.76C43.7867 18.5707 43.488 19.2533 43.104 19.808C43.5307 19.296 44.1707 18.8267 45.024 18.4C45.92 17.9307 46.688 17.6747 47.328 17.632C46.9013 18.144 46.5387 18.8693 46.24 19.808C45.9413 20.704 45.8133 21.472 45.856 22.112C46.496 22.3253 47.3493 22.368 48.416 22.24C49.4827 22.0693 50.2933 21.792 50.848 21.408C50.7627 22.0907 50.4213 22.88 49.824 23.776C49.2267 24.6293 48.6293 25.2267 48.032 25.568C48.7573 25.3973 49.6533 25.376 50.72 25.504C51.7867 25.5893 52.6187 25.824 53.216 26.208C52.4907 26.2933 51.6587 26.6133 50.72 27.168C49.824 27.68 49.1413 28.2347 48.672 28.832C48.4587 29.2587 48.288 29.8133 48.16 30.496C48.0747 31.136 48.1173 31.6693 48.288 32.096C47.9467 31.7547 47.6907 31.264 47.52 30.624C47.3493 29.984 47.264 29.4293 47.264 28.96C47.264 29.6853 47.0933 30.4747 46.752 31.328C47.1787 32.4373 47.328 33.4187 47.2 34.272C47.84 33.6747 48.416 32.864 48.928 31.84C49.44 30.816 49.6747 29.856 49.632 28.96C49.8453 29.8133 49.8453 30.816 49.632 31.968C49.4613 33.0773 49.1413 33.9947 48.672 34.72C49.0987 35.104 49.7173 35.4667 50.528 35.808C51.3387 36.1067 52.0427 36.2133 52.64 36.128C52.256 36.512 51.6587 36.832 50.848 37.088C51.7867 37.088 52.7467 37.1947 53.728 37.408C54.7093 37.5787 55.5413 37.856 56.224 38.24C55.1147 37.9413 53.8347 37.8773 52.384 38.048C50.9333 38.176 49.696 38.496 48.672 39.008C49.2693 39.0507 49.9733 39.2853 50.784 39.712C51.5947 40.1387 52.192 40.5653 52.576 40.992C51.9787 40.992 51.2747 41.2267 50.464 41.696C49.6533 42.1653 49.056 42.6133 48.672 43.04C49.5253 43.168 50.5067 43.5307 51.616 44.128C52.768 44.6827 53.5787 45.3227 54.048 46.048C53.1947 45.8773 52.1493 45.984 50.912 46.368C49.7173 46.7093 48.7787 47.1147 48.096 47.584C48.6507 47.7973 49.248 48.1813 49.888 48.736C50.528 49.248 50.976 49.76 51.232 50.272C50.72 50.016 50.0373 49.9093 49.184 49.952C48.3307 49.952 47.6267 50.0373 47.072 50.208C47.6693 50.5493 48.2667 51.0827 48.864 51.808C49.4613 52.4907 49.8667 53.152 50.08 53.792C49.5253 53.408 48.8 53.088 47.904 52.832C47.008 52.576 46.24 52.512 45.6 52.64C45.5573 53.7493 45.8987 55.0293 46.624 56.48C47.392 57.888 48.2027 58.9973 49.056 59.808C48.288 59.7227 47.4347 59.488 46.496 59.104C45.6 58.6773 44.7467 58.1653 43.936 57.568C43.168 56.9707 42.592 56.352 42.208 55.712C41.9947 56.736 42.016 57.952 42.272 59.36C42.5707 60.768 43.0187 61.8773 43.616 62.688C42.6773 62.3467 41.696 61.6427 40.672 60.576C39.648 59.552 39.008 58.528 38.752 57.504C38.9227 58.2293 38.9013 59.1467 38.688 60.256C38.4747 61.408 38.1547 62.2827 37.728 62.88C37.5573 62.1547 37.0667 61.3653 36.256 60.512C35.4453 59.7013 34.72 59.1467 34.08 58.848C34.1653 59.4027 34.1013 60.1067 33.888 60.96C33.7173 61.8133 33.44 62.4533 33.056 62.88C33.0133 62.3253 32.7787 61.664 32.352 60.896C31.968 60.128 31.52 59.5733 31.008 59.232C31.1787 60.128 31.1147 61.152 30.816 62.304C30.56 63.456 30.1973 64.416 29.728 65.184C29.8987 64.3307 29.6213 63.3067 28.896 62.112C28.1707 60.9173 26.5493 59.936 24.032 59.168ZM28.192 25.76C28.5333 26.4427 28.7467 27.3387 28.832 28.448C28.832 27.936 28.768 27.4453 28.64 26.976C28.5547 26.5067 28.4053 26.1013 28.192 25.76ZM31.008 26.4C31.008 26.656 30.944 26.912 30.816 27.168C30.8587 27.424 30.9013 27.7013 30.944 28C31.072 27.36 31.0933 26.8267 31.008 26.4ZM28.704 31.648C28.9173 31.776 29.024 31.8613 29.024 31.904C29.4507 31.4773 29.8347 30.9013 30.176 30.176C30.2187 29.536 30.2613 28.9173 30.304 28.32C29.792 29.216 29.3227 29.792 28.896 30.048C28.8533 30.6027 28.7893 31.136 28.704 31.648ZM34.08 28.96C33.824 29.344 33.4613 29.728 32.992 30.112C32.5227 30.4533 32.0107 30.7733 31.456 31.072C31.584 31.7973 31.7333 32.4587 31.904 33.056C32.0747 33.6533 32.2453 34.0587 32.416 34.272C32.4587 33.7173 32.736 33.056 33.248 32.288C33.8027 31.4773 34.272 30.944 34.656 30.688C34.3147 30.0053 34.1227 29.4293 34.08 28.96ZM44.512 28.96C44.512 29.2587 44.4267 29.6 44.256 29.984C44.128 30.3253 43.9573 30.688 43.744 31.072C43.7867 31.6267 43.9147 32.2027 44.128 32.8C44.3413 33.3973 44.5973 33.888 44.896 34.272C45.3227 33.6747 45.6427 32.9067 45.856 31.968C45.6853 30.7307 45.2373 29.728 44.512 28.96ZM40.992 28.96C40.992 29.3867 40.864 29.8773 40.608 30.432C40.3947 30.944 40.1387 31.4133 39.84 31.84C40.1387 32.1813 40.416 32.5867 40.672 33.056C40.928 33.5253 41.056 33.9307 41.056 34.272C41.3547 33.8453 41.568 33.312 41.696 32.672C41.8667 32.032 41.9093 31.4773 41.824 31.008C42.2507 31.648 42.528 32.4373 42.656 33.376C42.656 32.992 42.72 32.608 42.848 32.224L42.72 32.288C42.6773 31.776 42.464 31.1787 42.08 30.496C41.7387 29.7707 41.376 29.2587 40.992 28.96ZM36 32.288C35.7013 32.1173 35.3813 31.776 35.04 31.264C35.2533 31.8187 35.5733 32.3947 36 32.992C36.4693 33.5893 36.896 34.016 37.28 34.272C37.664 34.016 38.0693 33.568 38.496 32.928C38.9227 32.2453 39.1573 31.6693 39.2 31.2L39.264 31.264C38.9227 30.2827 38.4747 29.5147 37.92 28.96C37.536 29.2587 37.1307 29.7707 36.704 30.496C36.2773 31.2213 36.0427 31.8187 36 32.288ZM26.848 30.88C26.8053 30.7093 26.7413 30.56 26.656 30.432C26.784 30.688 26.848 30.8373 26.848 30.88ZM21.792 30.752C22.2187 30.624 22.688 30.5387 23.2 30.496C22.6453 30.5387 22.176 30.624 21.792 30.752ZM21.728 32.096C22.5813 31.84 23.6053 31.776 24.8 31.904C25.9947 32.032 27.0187 32.352 27.872 32.864C27.7013 32.4373 27.5093 31.9893 27.296 31.52C26.3573 31.392 25.376 31.392 24.352 31.52C23.328 31.6053 22.4533 31.7973 21.728 32.096ZM28.384 41.504C28.0853 42.2293 27.872 43.0827 27.744 44.064C27.616 45.0027 27.5733 45.9627 27.616 46.944C27.6587 47.9253 27.8507 48.7573 28.192 49.44C27.9787 48.8 27.9573 48.0107 28.128 47.072C28.3413 46.0907 28.6613 45.3227 29.088 44.768C29.1733 45.4507 29.4293 46.24 29.856 47.136C30.2827 47.9893 30.7733 48.5867 31.328 48.928C30.816 48.3733 30.368 47.584 29.984 46.56C29.6 45.4933 29.4507 44.576 29.536 43.808C29.0667 43.68 28.6187 43.616 28.192 43.616C28.9173 43.2747 29.8133 43.104 30.88 43.104C30.6667 42.5493 30.432 42.1227 30.176 41.824C29.5787 41.312 28.7467 40.8853 27.68 40.544C26.656 40.2027 25.76 40.0747 24.992 40.16C25.5467 39.648 26.3573 39.2427 27.424 38.944C28.4907 38.6027 29.408 38.4533 30.176 38.496C29.792 37.984 29.152 37.5147 28.256 37.088C27.4027 36.6187 26.656 36.3627 26.016 36.32C26.4427 35.8507 27.104 35.4027 28 34.976C28.896 34.5493 29.664 34.3573 30.304 34.4C30.2187 34.1867 30.1547 33.8453 30.112 33.376C30.112 32.864 30.112 32.288 30.112 31.648C29.6853 31.8187 29.344 31.904 29.088 31.904L29.152 31.968H29.024H28.96L29.024 31.904C28.896 31.8613 28.768 31.84 28.64 31.84C28.512 32.5653 28.3413 33.2053 28.128 33.76C28.0427 33.504 27.9573 33.248 27.872 32.992C26.9333 32.736 25.8667 32.672 24.672 32.8C23.4773 32.928 22.4747 33.2267 21.664 33.696C22.304 33.696 23.0507 33.952 23.904 34.464C24.8 34.9333 25.4613 35.424 25.888 35.936C25.248 35.8933 24.48 36.128 23.584 36.64C22.688 37.1093 22.048 37.6 21.664 38.112C21.8773 38.496 22.3253 38.88 23.008 39.264C23.7333 39.6053 24.3093 39.7973 24.736 39.84C24.48 40.224 24.0107 40.6293 23.328 41.056C22.688 41.4827 22.1333 41.7173 21.664 41.76C22.0053 42.016 22.4747 42.2933 23.072 42.592C23.6693 42.848 24.1813 42.976 24.608 42.976C24.3947 43.3173 23.9893 43.68 23.392 44.064C22.8373 44.448 22.368 44.6613 21.984 44.704C22.8373 45.0027 23.8187 45.0667 24.928 44.896C25.9947 43.3173 27.1467 42.1867 28.384 41.504ZM29.536 43.808C29.8347 44.2773 30.3253 44.768 31.008 45.28C31.0933 45.1093 31.1787 44.96 31.264 44.832C31.264 44.704 31.2427 44.576 31.2 44.448C30.6453 44.1493 30.0907 43.936 29.536 43.808ZM34.08 46.816C33.7387 46.2613 33.2053 45.728 32.48 45.216C32.3093 45.472 32.1387 45.7067 31.968 45.92C32.736 46.3467 33.44 46.6453 34.08 46.816ZM31.2 45.408C31.2427 45.4507 31.2853 45.4933 31.328 45.536C31.328 45.4507 31.328 45.3653 31.328 45.28C31.2853 45.3227 31.2427 45.3653 31.2 45.408ZM53.493 55.392C52.725 55.3067 51.893 54.944 50.997 54.304C50.101 53.6213 49.4183 52.96 48.949 52.32C49.6743 52.6613 50.5703 52.896 51.637 53.024C52.7463 53.152 53.685 53.0453 54.453 52.704C53.8557 52.6187 53.2157 52.32 52.533 51.808C51.8503 51.296 51.381 50.7627 51.125 50.208C51.637 50.464 52.3197 50.6133 53.173 50.656C54.0263 50.6987 54.7303 50.592 55.285 50.336C54.389 50.2507 53.429 49.8667 52.405 49.184C51.381 48.4587 50.613 47.7333 50.101 47.008C50.869 47.52 51.8717 47.84 53.109 47.968C54.3463 48.096 55.3703 47.9893 56.181 47.648C55.7543 46.9653 55.0503 46.3467 54.069 45.792C53.1303 45.1947 52.2557 44.8533 51.445 44.768C52.1703 44.5973 53.0237 44.5547 54.005 44.64C53.4503 44.384 52.9383 44.1067 52.469 43.808C51.9997 43.4667 51.637 43.104 51.381 42.72C52.149 43.1893 53.1303 43.5947 54.325 43.936C55.5197 44.2773 56.565 44.2987 57.461 44C56.821 43.9573 56.117 43.7013 55.349 43.232C54.6237 42.7627 54.069 42.272 53.685 41.76C54.197 42.1013 54.901 42.336 55.797 42.464C56.693 42.592 57.4397 42.5493 58.037 42.336C57.4823 41.5253 56.629 40.736 55.477 39.968C54.3677 39.2 53.3223 38.7307 52.341 38.56C53.2797 38.2187 54.4317 38.112 55.797 38.24C57.205 38.368 58.3357 38.688 59.189 39.2C58.549 38.3893 57.589 37.7067 56.309 37.152C55.0717 36.5547 53.941 36.2347 52.917 36.192C53.3863 36.1067 53.9197 36.064 54.517 36.064C53.9197 35.68 53.4503 35.2533 53.109 34.784C53.9623 35.4667 55.0717 35.9573 56.437 36.256C57.8023 36.5547 59.0183 36.64 60.085 36.512C59.189 36.384 58.2077 36 57.141 35.36C56.117 34.72 55.3917 34.016 54.965 33.248C55.6903 33.7173 56.6717 34.016 57.909 34.144C59.1463 34.272 60.1917 34.1867 61.045 33.888C60.5757 33.0773 59.829 32.2667 58.805 31.456C57.781 30.6027 56.821 30.048 55.925 29.792C56.7357 29.4933 57.7597 29.3227 58.997 29.28C60.2343 29.2373 61.2797 29.3653 62.133 29.664C61.5783 29.408 61.0237 29.0453 60.469 28.576C59.9143 28.064 59.5303 27.552 59.317 27.04C59.8717 27.2107 60.5757 27.296 61.429 27.296C62.2823 27.296 62.965 27.1467 63.477 26.848C62.581 26.6347 61.621 26.1227 60.597 25.312C59.573 24.5013 58.869 23.6693 58.485 22.816C59.3383 23.1573 60.4263 23.3493 61.749 23.392C63.0717 23.392 64.117 23.1787 64.885 22.752C64.501 22.752 63.8397 22.5813 62.901 22.24C61.9623 21.8987 60.9383 21.4933 59.829 21.024C58.7623 20.512 57.781 20 56.885 19.488C56.0317 18.976 55.477 18.5707 55.221 18.272C55.5197 18.528 56.1383 18.8267 57.077 19.168C58.0583 19.4667 59.125 19.7653 60.277 20.064C61.429 20.32 62.4957 20.5333 63.477 20.704C64.501 20.8747 65.205 20.9173 65.589 20.832C64.949 20.448 64.2663 19.808 63.541 18.912C62.8583 17.9733 62.4317 17.1413 62.261 16.416C62.9437 16.7147 63.861 16.9067 65.013 16.992C66.2077 17.0347 67.125 16.8853 67.765 16.544C68.0637 16.032 68.277 15.392 68.405 14.624C68.5757 13.8133 68.5757 13.1307 68.405 12.576C68.8317 13.1307 69.1303 13.8773 69.301 14.816C69.3863 13.92 69.5783 13.024 69.877 12.128C70.2183 11.1893 70.6237 10.4427 71.093 9.888C70.965 10.8693 71.093 12.0213 71.477 13.344C71.861 14.624 72.3303 15.6693 72.885 16.48C72.7997 15.5413 72.9063 14.4747 73.205 13.28C73.5037 12.0427 73.9517 11.0613 74.549 10.336C74.293 11.232 74.3357 12.32 74.677 13.6C75.0183 14.8373 75.509 15.7973 76.149 16.48C76.533 16.0107 76.789 15.392 76.917 14.624C77.0877 13.8133 77.1303 13.1093 77.045 12.512C77.4717 13.1093 77.7703 13.856 77.941 14.752C78.1543 13.1307 78.6663 11.7227 79.477 10.528C79.349 11.424 79.4343 12.4693 79.733 13.664C80.0317 14.816 80.437 15.7547 80.949 16.48C81.6743 15.7973 82.2717 14.8373 82.741 13.6C83.2103 12.3627 83.4663 11.2533 83.509 10.272C83.9783 11.1253 84.1917 12.2347 84.149 13.6C84.1063 14.9653 83.893 16.096 83.509 16.992C84.3623 17.0347 85.301 16.9067 86.325 16.608C87.3917 16.3093 88.2663 15.904 88.949 15.392C88.565 16.16 87.8823 16.8427 86.901 17.44C85.9197 17.9947 85.0023 18.3147 84.149 18.4C85.173 18.7413 86.4103 18.8907 87.861 18.848C89.3117 18.7627 90.5063 18.4853 91.445 18.016C91.0183 18.9973 90.165 19.9147 88.885 20.768C87.6477 21.6213 86.517 22.1333 85.493 22.304C86.4743 22.688 87.6903 22.8587 89.141 22.816C90.6343 22.7733 91.8503 22.4747 92.789 21.92C92.4477 22.56 91.9143 23.2213 91.189 23.904C90.4637 24.544 89.6957 25.0773 88.885 25.504C90.0797 25.3333 91.1037 25.3973 91.957 25.696C91.2317 25.7813 90.421 26.1227 89.525 26.72C88.6717 27.3173 88.053 27.936 87.669 28.576C88.309 28.7467 89.0557 28.8107 89.909 28.768C90.805 28.6827 91.5517 28.512 92.149 28.256C91.9357 28.64 91.5943 29.024 91.125 29.408C92.7463 28.8533 94.2183 28.704 95.541 28.96C94.4743 28.8747 93.2797 29.152 91.957 29.792C90.6343 30.432 89.6103 31.1573 88.885 31.968C89.6103 31.5413 90.549 31.2853 91.701 31.2C92.8957 31.1147 93.8983 31.2213 94.709 31.52C93.8557 31.6907 92.9383 32.1173 91.957 32.8C90.9757 33.44 90.293 34.1227 89.909 34.848C90.4637 35.1467 91.2103 35.3387 92.149 35.424C93.0877 35.5093 93.8343 35.424 94.389 35.168C94.2183 35.7227 93.813 36.2987 93.173 36.896C92.533 37.4507 91.9357 37.856 91.381 38.112C92.149 37.8133 93.109 37.6853 94.261 37.728C95.413 37.728 96.3517 37.8773 97.077 38.176C96.2663 38.3467 95.3703 38.816 94.389 39.584C93.4077 40.352 92.725 41.12 92.341 41.888C92.9383 41.5467 93.7277 41.376 94.709 41.376C95.733 41.3333 96.5437 41.4827 97.141 41.824C96.4583 41.952 95.7117 42.3147 94.901 42.912C94.133 43.5093 93.621 44.128 93.365 44.768C94.1757 45.152 95.221 45.3227 96.501 45.28C97.781 45.1947 98.8263 44.9173 99.637 44.448C99.253 45.1307 98.6557 45.792 97.845 46.432C97.077 47.072 96.2877 47.5413 95.477 47.84C96.117 47.7547 96.821 47.7547 97.589 47.84C98.357 47.9253 98.9757 48.0747 99.445 48.288C98.805 48.544 98.0797 48.992 97.269 49.632C96.501 50.272 95.989 50.912 95.733 51.552C96.4157 51.296 97.2903 51.1893 98.357 51.232C99.4663 51.232 100.341 51.3813 100.981 51.68C100.256 51.8507 99.4663 52.2987 98.613 53.024C97.8023 53.7493 97.269 54.4533 97.013 55.136C97.909 54.4533 99.125 54.0053 100.661 53.792C102.197 53.536 103.498 53.6 104.565 53.984C103.456 54.1547 102.218 54.6027 100.853 55.328C99.5303 56.0533 98.549 56.8853 97.909 57.824C98.3357 57.9947 98.7623 58.2933 99.189 58.72C99.6583 59.1467 99.9783 59.5947 100.149 60.064C99.8503 59.68 99.4023 59.36 98.805 59.104C98.2503 58.848 97.7383 58.72 97.269 58.72C96.885 59.1467 96.5437 59.7653 96.245 60.576C95.989 61.4293 95.8823 62.1547 95.925 62.752C95.5837 62.4533 95.285 62.0267 95.029 61.472C94.8157 60.96 94.6663 60.4267 94.581 59.872C94.5383 60.768 94.3677 61.7067 94.069 62.688C93.813 63.6693 93.4503 64.48 92.981 65.12C93.1943 64.1813 93.1303 63.072 92.789 61.792C92.4477 60.5547 92.021 59.5307 91.509 58.72C90.869 59.3173 90.357 60.2133 89.973 61.408C89.589 62.6453 89.461 63.6907 89.589 64.544C89.1623 64.0747 88.7783 63.456 88.437 62.688C88.1383 61.92 87.925 61.1733 87.797 60.448C87.669 61.8987 87.2423 63.1573 86.517 64.224C86.7303 63.4133 86.7303 62.4533 86.517 61.344C86.3463 60.2773 86.0477 59.3813 85.621 58.656C84.8957 59.0827 83.9143 59.424 82.677 59.68C81.4823 59.936 80.4797 59.936 79.669 59.68C80.4797 59.3813 81.333 58.8053 82.229 57.952C83.125 57.0987 83.7223 56.2453 84.021 55.392C83.4663 56.2027 82.613 56.9493 81.461 57.632C80.309 58.3147 79.2637 58.6987 78.325 58.784C78.7943 58.4427 79.2423 57.952 79.669 57.312C79.3703 57.0133 79.093 56.5867 78.837 56.032C78.6237 55.4773 78.453 54.9227 78.325 54.368C78.2823 55.1787 78.1117 56.0107 77.813 56.864C77.5143 57.7173 77.173 58.4213 76.789 58.976C76.9597 58.08 76.8957 57.0347 76.597 55.84C76.341 54.6453 75.9357 53.664 75.381 52.896C74.997 53.536 74.677 54.368 74.421 55.392C74.2077 56.416 74.2077 57.312 74.421 58.08C73.9517 57.44 73.6103 56.608 73.397 55.584C73.2263 54.56 73.2263 53.664 73.397 52.896C73.013 53.408 72.757 54.0907 72.629 54.944C72.5437 55.7973 72.5863 56.5227 72.757 57.12C72.3303 56.4373 72.0743 55.584 71.989 54.56C71.7757 55.4987 71.477 56.352 71.093 57.12C71.9463 58.3147 72.8423 59.4453 73.781 60.512C74.7197 61.5787 75.4023 62.24 75.829 62.496C75.3597 62.368 74.5917 61.856 73.525 60.96C72.4583 60.1067 71.3917 59.168 70.325 58.144V58.208V58.144C69.941 57.76 69.5783 57.3973 69.237 57.056C68.2983 57.1413 67.4663 57.056 66.741 56.8C67.5943 57.2693 68.4263 57.9733 69.237 58.912C70.0903 59.808 70.6663 60.6827 70.965 61.536C70.2397 60.8107 69.2583 60.1707 68.021 59.616C66.7837 59.0187 65.653 58.72 64.629 58.72C64.117 59.6587 63.733 60.8107 63.477 62.176C63.221 63.5413 63.2423 64.736 63.541 65.76C62.8157 64.608 62.3677 63.2 62.197 61.536C62.0263 62.3467 61.7703 63.1147 61.429 63.84C61.0877 64.608 60.6823 65.2053 60.213 65.632C60.2983 64.608 60.1277 63.392 59.701 61.984C59.2743 60.6187 58.741 59.5307 58.101 58.72C58.1437 59.3173 58.0797 60 57.909 60.768C57.781 61.536 57.5463 62.176 57.205 62.688C57.333 62.0907 57.2903 61.408 57.077 60.64C56.9063 59.872 56.6503 59.232 56.309 58.72C55.669 59.4027 55.1357 60.3627 54.709 61.6C54.325 62.88 54.2397 63.968 54.453 64.864C53.7703 64.224 53.2797 63.1147 52.981 61.536C52.6823 60 52.853 57.952 53.493 55.392ZM73.525 31.072C73.7383 31.1147 73.973 31.2 74.229 31.328C74.357 31.2 74.485 31.0933 74.613 31.008C74.1863 30.9653 73.8237 30.9867 73.525 31.072ZM77.301 32.096C76.8317 31.84 76.213 31.712 75.445 31.712L75.381 31.968C75.7223 32.2667 75.9783 32.5227 76.149 32.736C76.533 32.3947 76.917 32.1813 77.301 32.096ZM75.061 31.776V31.712C75.061 31.712 75.0397 31.712 74.997 31.712L75.061 31.776ZM72.629 34.016C73.141 34.016 73.6743 34.1653 74.229 34.464C74.8263 34.7627 75.2103 35.0613 75.381 35.36C75.8503 35.1893 76.2983 34.976 76.725 34.72C77.1943 34.4213 77.557 34.1013 77.813 33.76C77.557 33.5893 77.173 33.4827 76.661 33.44C76.1917 33.3973 75.8077 33.44 75.509 33.568C75.637 33.312 75.829 33.056 76.085 32.8C75.6583 32.6293 75.1463 32.544 74.549 32.544L74.485 32.736L74.421 32.544C73.8663 32.544 73.397 32.6293 73.013 32.8C73.3117 32.8427 73.653 32.992 74.037 33.248C74.421 33.504 74.6983 33.76 74.869 34.016C74.5703 33.888 74.1863 33.824 73.717 33.824C73.2903 33.7813 72.9277 33.8453 72.629 34.016ZM74.869 37.984C74.869 37.984 74.8263 37.9627 74.741 37.92C74.7837 38.7733 74.9117 39.7547 75.125 40.864C75.381 41.9733 75.5943 42.6773 75.765 42.976C75.7223 42.5493 75.765 42.0373 75.893 41.44C76.021 40.8 76.2343 40.3093 76.533 39.968C76.4903 40.3093 76.5117 40.7147 76.597 41.184C77.0663 41.1413 77.5783 40.9493 78.133 40.608C78.1757 40.1387 78.1543 39.712 78.069 39.328C78.2823 39.584 78.453 39.904 78.581 40.288C79.0077 39.9893 79.3277 39.6693 79.541 39.328C79.1997 39.1573 78.7517 39.0507 78.197 39.008C77.6423 38.9653 77.173 39.008 76.789 39.136C76.9597 38.7947 77.2583 38.4533 77.685 38.112C78.1543 37.728 78.5597 37.4933 78.901 37.408C78.517 37.536 78.0263 37.5787 77.429 37.536C76.8317 37.4507 76.3623 37.3013 76.021 37.088C76.405 36.96 76.8317 36.704 77.301 36.32C77.7703 35.936 78.0903 35.5733 78.261 35.232C77.7917 35.5307 77.1943 35.7013 76.469 35.744C75.7437 35.7867 75.1463 35.7227 74.677 35.552C74.8477 35.5093 75.0397 35.4667 75.253 35.424C74.8263 35.2107 74.3143 35.104 73.717 35.104C73.1623 35.0613 72.693 35.104 72.309 35.232C72.6077 35.2747 72.949 35.424 73.333 35.68C73.7597 35.936 74.0583 36.192 74.229 36.448C73.9303 36.32 73.5463 36.256 73.077 36.256C72.6077 36.256 72.2237 36.32 71.925 36.448C72.309 36.448 72.7357 36.576 73.205 36.832C73.6743 37.0453 74.101 37.3013 74.485 37.6C74.5703 37.1733 74.677 36.8747 74.805 36.704C74.7197 36.9173 74.6983 37.3013 74.741 37.856L74.869 37.984ZM71.541 37.664C71.797 38.048 72.181 38.4107 72.693 38.752C73.2477 39.0933 73.717 39.2853 74.101 39.328C74.1863 38.7307 74.293 38.2187 74.421 37.792C73.9517 37.6213 73.4397 37.5147 72.885 37.472C72.373 37.4293 71.925 37.4933 71.541 37.664ZM71.861 39.584C72.629 39.8827 73.2903 40.3093 73.845 40.864C73.8877 40.3947 73.9517 39.9253 74.037 39.456C73.3543 39.6693 72.629 39.712 71.861 39.584ZM71.285 41.504C71.7117 41.7173 72.0957 41.9733 72.437 42.272C72.6077 41.888 72.7357 41.4827 72.821 41.056C72.2663 41.0133 71.733 41.0347 71.221 41.12C71.221 41.248 71.2423 41.376 71.285 41.504ZM80.053 41.056C80.053 41.056 80.0317 41.056 79.989 41.056C79.9463 41.056 79.8397 41.12 79.669 41.248C79.669 41.2907 79.669 41.3547 79.669 41.44C79.797 41.312 79.925 41.184 80.053 41.056ZM73.397 41.12C73.5677 41.504 73.6743 41.9093 73.717 42.336C73.717 42.0373 73.7383 41.6533 73.781 41.184C73.653 41.184 73.525 41.1627 73.397 41.12ZM70.453 41.248C70.453 41.248 70.4743 41.2693 70.517 41.312C70.5597 41.312 70.6877 41.3333 70.901 41.376C70.9437 41.2907 70.9863 41.2053 71.029 41.12C71.3277 41.0773 71.605 41.056 71.861 41.056C72.117 41.0133 72.1597 41.0133 71.989 41.056C71.861 41.0987 71.349 41.1627 70.453 41.248ZM77.301 42.976C77.5997 42.592 77.8343 42.1013 78.005 41.504C77.4077 41.504 76.9383 41.4187 76.597 41.248C76.725 41.9733 76.9597 42.5493 77.301 42.976ZM71.989 42.976L72.117 42.784C71.989 42.7413 71.8823 42.72 71.797 42.72C71.8397 42.8053 71.9037 42.8907 71.989 42.976ZM81.269 52.896C80.8423 53.408 80.4583 54.112 80.117 55.008C79.7757 55.904 79.6477 56.6507 79.733 57.248C80.1597 56.5653 80.5223 55.84 80.821 55.072C81.1197 54.2613 81.269 53.536 81.269 52.896ZM68.533 52.896C68.6183 53.152 68.789 53.5147 69.045 53.984C69.301 54.4533 69.621 54.9653 70.005 55.52C69.621 54.368 69.1303 53.4933 68.533 52.896ZM104.238 55.456C103.811 55.0293 103.192 54.7093 102.382 54.496C101.614 54.24 100.931 54.1333 100.334 54.176C100.76 53.792 101.358 53.472 102.126 53.216C102.936 52.96 103.64 52.8533 104.238 52.896C103.214 52.384 101.955 52.0427 100.462 51.872C99.0108 51.6587 97.7522 51.744 96.6855 52.128C97.3255 51.744 98.1148 51.4667 99.0535 51.296C99.9495 51.0827 100.867 50.9973 101.806 51.04C100.782 50.6987 100.014 50.2507 99.5015 49.696C100.227 49.7813 101.059 49.6533 101.998 49.312C102.979 48.9707 103.726 48.544 104.238 48.032C103.768 47.648 103.107 47.3067 102.254 47.008C101.443 46.6667 100.718 46.5173 100.078 46.56C100.504 46.0907 101.144 45.7067 101.998 45.408C102.851 45.0667 103.598 44.9387 104.238 45.024C103.427 44.5547 102.403 44.2347 101.166 44.064C99.9708 43.8507 98.9255 43.872 98.0295 44.128C98.5415 43.8293 99.1388 43.5733 99.8215 43.36C98.9255 43.2747 98.0722 43.168 97.2615 43.04C96.4508 42.912 95.9175 42.7627 95.6615 42.592C95.9602 42.72 96.5148 42.784 97.3255 42.784C98.1362 42.784 99.0108 42.7413 99.9495 42.656C100.931 42.5707 101.806 42.464 102.574 42.336C103.384 42.208 103.939 42.08 104.238 41.952C103.342 41.2267 102.126 40.672 100.59 40.288C99.0962 39.8613 97.7735 39.6907 96.6215 39.776C97.5175 39.0933 98.7122 38.5387 100.206 38.112C101.742 37.6853 103.086 37.5147 104.238 37.6C103.683 37.216 102.936 36.96 101.998 36.832C101.059 36.6613 100.27 36.704 99.6295 36.96C100.312 36.4907 101.23 36.2133 102.382 36.128C101.656 35.9573 100.931 35.68 100.206 35.296C99.5228 34.912 98.9682 34.528 98.5415 34.144C99.3948 34.272 100.397 34.1013 101.549 33.632C102.744 33.12 103.64 32.5653 104.238 31.968C103.598 31.328 102.659 30.7947 101.422 30.368C100.184 29.8987 99.1175 29.7067 98.2215 29.792C98.6908 29.28 99.3522 28.832 100.206 28.448C101.101 28.064 101.976 27.808 102.83 27.68C101.464 27.552 100.355 27.168 99.5015 26.528C100.184 26.6133 100.995 26.5493 101.934 26.336C102.872 26.08 103.64 25.76 104.238 25.376C103.598 25.4187 102.808 25.2907 101.87 24.992C100.931 24.6933 100.248 24.3093 99.8215 23.84C100.504 23.84 101.272 23.6907 102.126 23.392C103.022 23.0933 103.726 22.7307 104.238 22.304C103.64 21.7493 102.787 21.3013 101.678 20.96C100.568 20.576 99.6082 20.4267 98.7975 20.512C99.3948 19.9573 100.248 19.5093 101.358 19.168C102.467 18.8267 103.427 18.6773 104.238 18.72C104.195 17.952 103.896 17.0987 103.342 16.16C102.83 15.1787 102.275 14.432 101.678 13.92C102.446 13.92 103.299 14.1973 104.238 14.752C105.219 15.3067 105.966 15.8827 106.478 16.48C106.904 15.8827 107.288 15.0933 107.63 14.112C107.971 13.088 108.078 12.2133 107.95 11.488C108.504 12.0427 108.91 12.832 109.166 13.856C109.464 14.88 109.571 15.7547 109.486 16.48C110.083 15.7973 110.595 14.8373 111.022 13.6C111.448 12.3627 111.619 11.296 111.534 10.4C112.088 11.1253 112.558 12.1067 112.942 13.344C113.368 14.5387 113.56 15.584 113.518 16.48C114.2 16.2667 114.926 15.84 115.694 15.2C116.504 14.56 117.059 13.92 117.358 13.28C117.528 13.92 117.571 14.752 117.486 15.776C117.4 16.8 117.187 17.6107 116.846 18.208C117.486 17.696 118.382 17.2907 119.534 16.992C120.686 16.6507 121.667 16.5653 122.478 16.736C121.71 17.0347 120.942 17.632 120.174 18.528C119.406 19.424 118.872 20.256 118.574 21.024C119.47 21.152 120.515 21.0453 121.71 20.704C122.904 20.3627 123.843 19.872 124.526 19.232C124.312 19.9147 123.907 20.5973 123.31 21.28C122.712 21.92 122.072 22.4747 121.39 22.944C121.987 22.688 122.606 22.496 123.246 22.368C123.886 22.24 124.483 22.1973 125.038 22.24C124.355 22.496 123.63 22.9867 122.862 23.712C122.136 24.4373 121.667 25.1413 121.454 25.824C122.222 25.2693 123.246 24.8213 124.526 24.48C125.848 24.096 127 23.9467 127.982 24.032C127.086 24.416 126.147 25.0987 125.166 26.08C124.184 27.0187 123.566 27.9573 123.31 28.896C123.864 29.0667 124.59 29.0667 125.486 28.896C125.528 28.384 125.635 27.936 125.806 27.552C125.806 27.936 125.848 28.3627 125.934 28.832C126.488 28.6613 126.936 28.4693 127.278 28.256C127.15 28.8533 126.83 29.472 126.318 30.112C126.36 30.2827 126.424 30.432 126.51 30.56C127.406 30.2187 128.174 30.112 128.814 30.24C128.515 29.5573 128.11 28.8533 127.598 28.128C127.128 27.4027 126.659 26.8693 126.19 26.528C126.872 26.3147 127.768 26.2507 128.878 26.336C130.03 26.3787 130.926 26.5707 131.566 26.912C131.352 26.1013 130.84 25.184 130.03 24.16C129.262 23.136 128.472 22.4533 127.662 22.112C128.515 21.9413 129.56 21.9627 130.798 22.176C132.035 22.3893 133.038 22.752 133.806 23.264C133.763 22.5813 133.464 21.8133 132.91 20.96C132.355 20.1067 131.8 19.5093 131.246 19.168C131.843 18.912 132.632 18.8267 133.614 18.912C134.638 18.9973 135.448 19.2107 136.046 19.552C135.832 19.1253 135.299 18.5493 134.446 17.824C133.592 17.056 132.611 16.288 131.502 15.52C130.435 14.7093 129.411 14.0053 128.43 13.408C127.448 12.8107 126.744 12.448 126.318 12.32C126.702 12.32 127.342 12.4907 128.238 12.832C129.134 13.1307 130.115 13.536 131.182 14.048C132.248 14.5173 133.251 15.0293 134.19 15.584C135.171 16.096 135.96 16.5653 136.558 16.992C136.088 16.5653 135.683 16.0533 135.342 15.456C135 14.816 134.808 14.2187 134.766 13.664C135.107 14.2613 135.619 14.8587 136.302 15.456C137.027 16.0107 137.71 16.3733 138.35 16.544C138.008 15.6907 137.944 14.624 138.158 13.344C138.371 12.064 138.755 11.0613 139.31 10.336C139.182 11.232 139.224 12.2987 139.438 13.536C139.694 14.7307 140.099 15.712 140.654 16.48C140.568 15.7547 140.696 14.9013 141.038 13.92C141.379 12.9387 141.784 12.1707 142.254 11.616C142.168 12.3413 142.296 13.216 142.638 14.24C142.979 15.2213 143.406 15.968 143.918 16.48C143.79 15.712 143.875 14.7947 144.174 13.728C144.515 12.6613 144.942 11.8293 145.454 11.232C145.326 12 145.411 12.9173 145.71 13.984C146.008 15.0507 146.414 15.8827 146.926 16.48C147.48 15.4987 147.886 14.2827 148.142 12.832C148.398 11.3387 148.334 10.08 147.95 9.056C148.547 9.99466 148.952 11.2107 149.166 12.704C149.422 14.1973 149.358 15.456 148.974 16.48C149.912 16.992 151.107 17.2693 152.558 17.312C154.008 17.312 155.224 17.12 156.206 16.736C155.48 17.504 154.435 18.1227 153.07 18.592C151.704 19.0613 150.488 19.2747 149.422 19.232C149.848 19.8293 150.552 20.3627 151.534 20.832C152.558 21.3013 153.432 21.536 154.158 21.536C153.688 22.048 152.963 22.5387 151.982 23.008C151 23.4773 150.147 23.7547 149.422 23.84C150.36 24.3093 151.512 24.6507 152.878 24.864C154.243 25.0773 155.416 25.0347 156.398 24.736C155.459 25.3333 154.286 25.7173 152.878 25.888C153.475 26.0587 153.987 26.272 154.414 26.528C153.688 26.3573 152.814 26.3573 151.79 26.528C150.808 26.656 150.019 26.9333 149.422 27.36C150.446 27.104 151.662 27.1253 153.07 27.424C154.478 27.68 155.63 28.0853 156.526 28.64C155.502 28.4267 154.264 28.4267 152.814 28.64C151.363 28.8533 150.232 29.28 149.422 29.92C150.318 30.6453 151.534 31.136 153.07 31.392C154.606 31.6053 155.907 31.5413 156.974 31.2C155.992 31.7973 154.755 32.2667 153.262 32.608C151.768 32.9067 150.488 32.864 149.422 32.48C150.147 32.992 151.086 33.4187 152.238 33.76C153.39 34.0587 154.392 34.1013 155.246 33.888C154.563 34.4427 153.624 34.848 152.43 35.104C151.278 35.3173 150.275 35.3813 149.422 35.296C150.062 35.68 150.851 35.9573 151.79 36.128C152.558 36.0853 153.347 36.1493 154.158 36.32C155.182 36.2773 156.099 36.1493 156.91 35.936C156.44 36.192 155.886 36.4053 155.246 36.576C155.886 36.7467 156.44 36.96 156.91 37.216C156.014 36.8747 154.904 36.7467 153.582 36.832C153.411 36.8747 153.24 36.896 153.07 36.896C151.704 37.024 150.488 37.344 149.422 37.856C149.976 38.3253 150.744 38.6667 151.726 38.88C152.707 39.0507 153.539 39.0507 154.222 38.88C153.838 39.1787 153.347 39.4347 152.75 39.648C152.195 39.8187 151.619 39.9253 151.022 39.968C152.174 40.1813 153.091 40.5867 153.774 41.184C153.134 41.0133 152.366 41.0773 151.47 41.376C150.574 41.632 149.891 41.9947 149.422 42.464C149.891 42.848 150.552 43.168 151.406 43.424C152.259 43.68 152.984 43.744 153.582 43.616C153.112 44 152.451 44.32 151.598 44.576C150.744 44.832 150.019 44.896 149.422 44.768C150.19 45.408 151.256 45.856 152.622 46.112C154.03 46.3253 155.224 46.3467 156.206 46.176C155.694 46.5173 155.032 46.816 154.222 47.072C153.454 47.328 152.686 47.4987 151.918 47.584C152.515 47.712 153.048 47.904 153.518 48.16C152.92 47.9893 152.216 47.968 151.406 48.096C150.595 48.224 149.934 48.4587 149.422 48.8C150.062 49.2693 150.894 49.568 151.918 49.696C152.984 49.7813 153.88 49.696 154.606 49.44C153.966 49.8667 153.134 50.144 152.11 50.272C151.086 50.3573 150.19 50.2933 149.422 50.08C150.104 50.6773 151.022 51.232 152.174 51.744C153.368 52.2133 154.414 52.384 155.31 52.256C154.712 52.896 153.795 53.4507 152.558 53.92C151.363 54.3467 150.318 54.5173 149.422 54.432C149.806 54.8587 150.403 55.2213 151.214 55.52C152.024 55.776 152.707 55.8827 153.262 55.84C152.878 56.2667 152.28 56.6293 151.47 56.928C150.659 57.184 149.976 57.2907 149.422 57.248C149.72 57.632 149.976 58.1867 150.19 58.912C150.446 59.5947 150.531 60.192 150.446 60.704C150.19 60.2347 149.742 59.808 149.102 59.424C148.504 59.04 147.95 58.8053 147.438 58.72C147.011 59.232 146.67 59.936 146.414 60.832C146.158 61.728 146.051 62.5173 146.094 63.2C145.582 62.7307 145.198 62.0267 144.942 61.088C144.686 60.192 144.6 59.4027 144.686 58.72C144.174 59.1467 143.726 59.8293 143.342 60.768C143 61.7067 142.872 62.496 142.958 63.136C142.446 62.7093 142.019 62.0267 141.678 61.088C141.336 60.192 141.166 59.4027 141.166 58.72C141.166 59.5733 140.952 60.5973 140.526 61.792C140.142 63.0293 139.608 63.9253 138.926 64.48C138.968 63.584 138.819 62.5387 138.478 61.344C138.136 60.1493 137.667 59.232 137.069 58.592C136.43 58.592 135.64 58.336 134.701 57.824C133.806 57.2693 133.144 56.736 132.718 56.224C133.358 56.1813 134.147 55.904 135.086 55.392C136.024 54.8373 136.643 54.2827 136.942 53.728C135.96 53.8133 134.808 53.6853 133.486 53.344C132.163 53.0027 131.096 52.5333 130.286 51.936C131.267 52.0213 132.419 51.9147 133.742 51.616C135.107 51.2747 136.174 50.784 136.942 50.144C136.387 49.504 135.512 48.992 134.318 48.608C133.166 48.1813 132.163 48.0107 131.31 48.096C131.48 47.9253 131.694 47.7547 131.95 47.584C131.096 47.4987 130.392 47.52 129.838 47.648C130.136 48.7147 130.264 49.9947 130.222 51.488C130.179 52.9387 129.859 54.1333 129.262 55.072C129.475 54.0053 129.326 52.768 128.814 51.36C128.344 49.952 127.768 48.8213 127.086 47.968C126.574 48.736 126.168 49.7173 125.87 50.912C125.571 52.1067 125.486 53.152 125.614 54.048C125.016 53.3653 124.568 52.4053 124.27 51.168C124.014 49.888 124.014 48.8213 124.27 47.968C123.715 47.7973 122.968 47.776 122.03 47.904C121.091 47.9893 120.366 48.16 119.854 48.416C119.854 47.9893 119.982 47.456 120.238 46.816C119.598 46.8587 118.936 46.9867 118.253 47.2C117.614 47.4133 117.102 47.712 116.718 48.096C117.571 48.6507 118.659 49.0987 119.982 49.44C121.304 49.7813 122.435 49.8027 123.374 49.504C122.606 50.144 121.539 50.6133 120.174 50.912C118.851 51.168 117.699 51.168 116.718 50.912C117.486 51.6373 118.574 52.192 119.982 52.576C121.432 52.9173 122.691 53.0453 123.758 52.96C122.904 53.6 121.774 54.1333 120.366 54.56C118.958 54.9867 117.742 55.1147 116.718 54.944C116.974 55.584 117.486 56.224 118.253 56.864C119.064 57.504 119.768 57.952 120.366 58.208C119.768 58.5067 118.958 58.72 117.934 58.848C116.952 58.9333 116.142 58.8907 115.502 58.72C115.118 59.2747 114.862 60.0213 114.734 60.96C114.648 61.8987 114.691 62.7093 114.862 63.392C114.52 62.7947 114.286 62.048 114.158 61.152C114.03 61.8773 113.838 62.5813 113.582 63.264C113.368 63.9893 113.091 64.5867 112.75 65.056C112.92 64.1173 112.856 63.008 112.558 61.728C112.259 60.4907 111.811 59.488 111.214 58.72C111.342 59.36 111.256 60.128 110.958 61.024C110.659 61.92 110.296 62.6027 109.87 63.072C109.955 62.432 109.827 61.664 109.486 60.768C109.187 59.9147 108.846 59.232 108.462 58.72C108.59 59.5307 108.526 60.4693 108.27 61.536C108.056 62.6027 107.694 63.456 107.182 64.096C107.352 63.2853 107.31 62.3253 107.054 61.216C106.84 60.1493 106.478 59.3173 105.966 58.72C106.307 59.5733 106.414 60.64 106.286 61.92C106.158 63.2 105.838 64.224 105.326 64.992C105.582 64.096 105.624 62.9013 105.454 61.408C105.326 59.9147 104.92 57.9307 104.238 55.456ZM129.07 31.072C129.027 30.8587 128.942 30.6027 128.814 30.304C128.43 30.432 128.046 30.6667 127.662 31.008C128.174 31.0933 128.643 31.1147 129.07 31.072ZM133.55 41.824C133.763 41.9093 133.976 42.016 134.19 42.144H134.318C134.062 41.9733 133.806 41.8667 133.55 41.824ZM120.558 42.464C120.344 42.464 120.11 42.5067 119.854 42.592C119.939 42.6347 120.024 42.6773 120.11 42.72C120.238 42.592 120.387 42.5067 120.558 42.464ZM116.718 42.528C116.846 42.656 116.995 42.784 117.166 42.912V42.72C116.995 42.6773 116.846 42.6133 116.718 42.528ZM118.126 43.488C118.382 43.616 118.659 43.7227 118.958 43.808C119.128 43.5947 119.299 43.4027 119.47 43.232C119.214 43.232 118.936 43.1893 118.638 43.104C118.467 43.232 118.296 43.36 118.126 43.488ZM136.046 43.872C136.216 43.7867 136.387 43.68 136.558 43.552C136.472 43.5093 136.387 43.4453 136.302 43.36C136.216 43.5307 136.131 43.7013 136.046 43.872ZM132.078 44.192C132.718 44.576 133.336 45.2587 133.934 46.24C134.062 46.0267 134.19 45.792 134.318 45.536C133.72 45.28 133.251 45.0027 132.91 44.704C133.422 44.704 134.04 44.5973 134.766 44.384C133.699 44.0853 132.803 44.0213 132.078 44.192ZM118.253 45.216V45.152C117.784 45.3653 117.379 45.4933 117.038 45.536C118.232 45.4933 119.363 45.7493 120.43 46.304C120.856 45.4507 121.283 44.8107 121.71 44.384C120.899 44.2133 120.003 44.3413 119.022 44.768C118.808 44.896 118.616 45.0027 118.446 45.088L118.253 45.216ZM134.062 46.496C134.872 46.24 135.619 46.0907 136.302 46.048C135.832 46.048 135.32 45.9413 134.766 45.728C134.552 46.0267 134.318 46.2827 134.062 46.496ZM159.05 55.456C158.367 54.944 157.45 54.6453 156.298 54.56C155.189 54.4747 154.229 54.5173 153.418 54.688C154.271 54.2187 155.359 53.92 156.682 53.792C154.762 53.408 153.205 52.6827 152.01 51.616C153.077 51.7013 154.335 51.552 155.786 51.168C157.237 50.7413 158.325 50.1227 159.05 49.312C158.41 48.9707 157.599 48.736 156.618 48.608C155.637 48.4373 154.805 48.4587 154.122 48.672C154.762 48.3307 155.551 48.096 156.49 47.968C157.471 47.7973 158.325 47.8187 159.05 48.032C158.495 47.392 157.599 46.8373 156.362 46.368C155.125 45.856 154.058 45.6213 153.162 45.664C153.802 45.0667 154.719 44.5333 155.914 44.064C157.109 43.552 158.154 43.2747 159.05 43.232C158.325 42.6347 157.343 42.208 156.106 41.952C154.869 41.6533 153.781 41.568 152.842 41.696C153.439 41.2693 154.165 40.9067 155.018 40.608C155.914 40.3093 156.789 40.1387 157.642 40.096C156.362 39.84 155.317 39.392 154.506 38.752C155.189 38.7947 155.999 38.688 156.938 38.432C157.877 38.176 158.581 37.8133 159.05 37.344C158.41 36.96 157.578 36.6827 156.554 36.512C155.573 36.2987 154.719 36.2773 153.994 36.448C154.634 36.0213 155.487 35.7227 156.554 35.552C155.829 35.4667 155.103 35.296 154.378 35.04C153.653 34.7413 153.077 34.4 152.65 34.016C153.589 34.2293 154.698 34.1653 155.978 33.824C157.258 33.4827 158.282 33.0347 159.05 32.48C158.666 31.968 158.005 31.4773 157.066 31.008C156.127 30.5387 155.338 30.304 154.698 30.304C155.125 29.792 155.786 29.3013 156.682 28.832C157.621 28.3627 158.41 28.128 159.05 28.128C158.239 27.36 157.087 26.784 155.594 26.4C154.101 25.9733 152.799 25.8027 151.69 25.888C152.202 25.376 152.906 24.928 153.802 24.544C154.698 24.1173 155.615 23.8187 156.554 23.648C157.493 23.4773 158.325 23.456 159.05 23.584C158.453 23.4987 157.685 23.2 156.746 22.688C155.85 22.176 155.231 21.664 154.89 21.152C155.487 21.0667 156.234 20.768 157.13 20.256C158.069 19.744 158.709 19.232 159.05 18.72C158.367 18.4213 157.642 17.9307 156.874 17.248C156.149 16.5653 155.615 15.8827 155.274 15.2C155.829 15.712 156.618 16.096 157.642 16.352C158.666 16.608 159.541 16.6507 160.266 16.48C160.821 15.7547 161.29 14.7733 161.674 13.536C162.101 12.2987 162.271 11.2107 162.186 10.272C163.039 11.2533 163.637 12.5547 163.978 14.176C164.021 13.4507 164.127 12.7467 164.298 12.064C164.511 11.3387 164.767 10.72 165.066 10.208C164.81 11.104 164.767 12.192 164.938 13.472C165.151 14.7093 165.535 15.712 166.09 16.48C166.474 16.0107 166.815 15.3707 167.114 14.56C167.413 13.7493 167.541 13.0453 167.498 12.448C168.223 13.3013 168.693 14.3467 168.906 15.584C168.949 14.6027 169.183 13.5573 169.61 12.448C170.037 11.3387 170.527 10.464 171.082 9.824C170.954 10.8053 171.125 11.9787 171.594 13.344C172.063 14.6667 172.618 15.712 173.258 16.48C172.959 15.4133 172.959 14.1547 173.258 12.704C173.599 11.2533 174.111 10.1013 174.794 9.248C174.495 10.3147 174.517 11.5733 174.858 13.024C175.199 14.432 175.669 15.584 176.266 16.48C176.906 15.712 177.311 14.6453 177.482 13.28C177.653 11.9147 177.631 10.7413 177.418 9.76C178.015 10.5707 178.399 11.6587 178.57 13.024C178.741 14.3467 178.741 15.4987 178.57 16.48C179.167 15.712 179.53 14.688 179.658 13.408C179.829 12.0853 179.765 10.9547 179.466 10.016C180.021 10.8267 180.362 11.872 180.49 13.152C180.661 14.432 180.618 15.5413 180.362 16.48C180.959 15.712 181.45 14.6667 181.834 13.344C182.261 12.0213 182.367 10.8907 182.154 9.952C182.751 10.72 183.242 11.7653 183.626 13.088C184.01 14.368 184.117 15.4987 183.946 16.48C184.458 15.968 184.906 15.2853 185.29 14.432C185.674 13.5787 185.951 12.704 186.122 11.808C186.335 10.8693 186.378 10.0587 186.25 9.376C186.975 10.144 187.551 11.2533 187.978 12.704C188.405 14.1547 188.575 15.4133 188.49 16.48C188.959 15.9253 189.343 15.1787 189.642 14.24C189.941 13.2587 190.069 12.4053 190.026 11.68C190.495 12.2347 190.901 13.0027 191.242 13.984C191.583 14.9227 191.69 15.7547 191.562 16.48C191.946 16.6933 192.479 16.7787 193.162 16.736C193.845 16.6933 194.399 16.5867 194.826 16.416C194.741 16.8427 194.463 17.3333 193.994 17.888C193.567 18.4 193.162 18.7413 192.778 18.912C193.375 18.8693 194.079 18.9973 194.89 19.296C195.701 19.5947 196.341 19.936 196.81 20.32C196.213 20.2773 195.509 20.4053 194.698 20.704C193.887 21.0027 193.247 21.3227 192.778 21.664C193.674 21.5787 194.741 21.6853 195.978 21.984C197.215 22.2827 198.175 22.7307 198.858 23.328C197.962 23.2427 196.895 23.3493 195.658 23.648C194.421 23.904 193.461 24.3307 192.778 24.928C193.461 24.7573 194.293 24.8 195.274 25.056C196.255 25.2693 197.023 25.6107 197.578 26.08C196.853 25.8667 195.999 25.7813 195.018 25.824C194.079 25.824 193.29 25.9733 192.65 26.272C192.778 26.9973 192.757 27.872 192.586 28.896C192.458 29.92 192.181 30.7733 191.754 31.456C191.797 31.968 191.775 32.5227 191.69 33.12C191.647 33.6747 191.541 34.1227 191.37 34.464C192.138 34.336 193.034 34.3787 194.058 34.592C195.082 34.8053 195.893 35.1253 196.49 35.552C195.722 35.4667 194.826 35.5307 193.802 35.744C192.821 35.9573 192.01 36.2773 191.37 36.704C192.309 37.216 193.461 37.536 194.826 37.664C196.234 37.792 197.45 37.728 198.474 37.472C197.535 37.9413 196.362 38.2613 194.954 38.432C193.589 38.56 192.394 38.496 191.37 38.24C192.01 38.5813 192.778 38.816 193.674 38.944C194.613 39.072 195.423 39.0507 196.106 38.88C195.893 39.008 195.637 39.136 195.338 39.264C196.49 39.392 197.45 39.6693 198.218 40.096C197.237 39.7547 196.085 39.6693 194.762 39.84C193.439 40.0107 192.309 40.3093 191.37 40.736C191.583 41.2907 191.967 41.8667 192.522 42.464C193.119 43.0187 193.695 43.424 194.25 43.68C193.653 43.68 192.97 43.5307 192.202 43.232C191.477 42.9333 190.879 42.592 190.41 42.208C189.983 42.6347 189.621 43.2533 189.322 44.064C189.023 44.832 188.874 45.5147 188.874 46.112C188.49 45.6853 188.127 45.088 187.786 44.32C187.445 43.5093 187.295 42.8053 187.338 42.208C186.954 42.848 186.698 43.68 186.57 44.704C186.442 45.728 186.485 46.5813 186.698 47.264C187.082 46.4533 187.253 45.728 187.21 45.088C187.551 45.3867 187.85 45.8347 188.106 46.432C188.405 47.0293 188.597 47.6053 188.682 48.16C188.682 47.4347 188.81 46.6453 189.066 45.792C189.365 44.9387 189.727 44.256 190.154 43.744C190.069 44.512 190.154 45.408 190.41 46.432C190.666 47.456 191.05 48.2453 191.562 48.8C191.391 48.16 191.349 47.4133 191.434 46.56C191.562 45.664 191.818 44.9387 192.202 44.384C192.031 45.024 191.989 45.792 192.074 46.688C192.202 47.584 192.458 48.288 192.842 48.8C193.695 49.2693 194.783 49.5467 196.106 49.632C197.471 49.6747 198.602 49.4827 199.498 49.056C198.773 49.7387 197.791 50.3573 196.554 50.912C195.359 51.424 194.271 51.616 193.29 51.488C194.101 52.0427 195.167 52.4053 196.49 52.576C197.813 52.704 198.943 52.5973 199.882 52.256C199.455 52.5547 198.965 52.7893 198.41 52.96C197.855 53.088 197.279 53.1947 196.682 53.28C197.706 53.536 198.474 53.8987 198.986 54.368C198.133 54.24 197.13 54.304 195.978 54.56C194.826 54.816 193.93 55.2213 193.29 55.776C193.973 56.0747 194.613 56.6933 195.21 57.632C195.85 58.528 196.277 59.3387 196.49 60.064C195.893 59.5947 195.061 59.2107 193.994 58.912C192.97 58.6133 192.074 58.5493 191.306 58.72C190.794 59.5733 190.431 60.6613 190.218 61.984C190.047 63.3067 190.154 64.416 190.538 65.312C190.197 64.8 189.941 64.1173 189.77 63.264C189.514 64.288 189.173 65.184 188.746 65.952C189.045 64.928 189.109 63.6907 188.938 62.24C188.767 60.7893 188.362 59.616 187.722 58.72C187.722 59.4453 187.487 60.32 187.018 61.344C186.549 62.368 186.037 63.1147 185.482 63.584C185.525 62.8587 185.29 61.9627 184.778 60.896C184.309 59.872 183.775 59.1467 183.178 58.72C183.349 59.4453 183.306 60.32 183.05 61.344C182.794 62.368 182.41 63.1573 181.898 63.712C182.026 62.9867 181.941 62.112 181.642 61.088C181.386 60.1067 181.045 59.3173 180.618 58.72C180.831 59.5733 180.874 60.576 180.746 61.728C180.618 62.88 180.319 63.8187 179.85 64.544C180.106 63.6907 180.149 62.688 179.978 61.536C179.807 60.4267 179.509 59.488 179.082 58.72C178.57 59.0613 178.058 59.68 177.546 60.576C177.077 61.472 176.778 62.2187 176.65 62.816C176.181 62.4747 175.669 61.856 175.114 60.96C174.602 60.064 174.325 59.3173 174.282 58.72C173.642 59.5307 173.173 60.5973 172.874 61.92C172.618 63.2853 172.575 64.48 172.746 65.504C172.106 64.6933 171.637 63.6053 171.338 62.24C171.082 60.9173 171.039 59.744 171.21 58.72C170.442 59.5733 169.887 60.768 169.546 62.304C169.205 63.84 169.077 65.184 169.162 66.336C168.65 65.6107 168.181 64.6933 167.754 63.584C167.37 62.4747 167.135 61.408 167.05 60.384C166.922 61.28 166.666 62.1973 166.282 63.136C165.898 64.0747 165.471 64.8213 165.002 65.376C165.045 64.3947 164.874 63.2 164.49 61.792C164.106 60.4267 163.551 59.4027 162.826 58.72C162.314 59.4027 161.887 60.32 161.546 61.472C161.205 62.624 161.077 63.6267 161.162 64.48C160.607 63.7973 160.138 62.7307 159.754 61.28C159.37 59.872 159.135 57.9307 159.05 55.456ZM189.514 26.4C189.514 26.656 189.429 27.1467 189.258 27.872C189.087 28.5973 188.853 29.3653 188.554 30.176C188.298 30.9867 188.042 31.6907 187.786 32.288C187.957 32.5867 188.149 32.8213 188.362 32.992C188.874 32.9067 189.407 32.6293 189.962 32.16C190.559 31.6907 191.007 31.2213 191.306 30.752C191.221 29.9413 191.007 29.1307 190.666 28.32C190.367 27.5093 189.983 26.8693 189.514 26.4ZM184.906 26.4C184.309 27.4667 183.989 28.7467 183.946 30.24C184.501 31.264 184.799 32.1813 184.842 32.992C184.799 32.3947 184.885 31.6907 185.098 30.88C185.311 30.0693 185.631 29.3653 186.058 28.768C185.845 28.2133 185.631 27.7227 185.418 27.296C185.205 26.8267 185.034 26.528 184.906 26.4ZM179.082 30.112C179.039 30.5387 179.146 31.0507 179.402 31.648C179.658 32.2453 179.935 32.6933 180.234 32.992C180.789 32.5227 181.301 31.8187 181.77 30.88C182.282 29.8987 182.538 29.0453 182.538 28.32C182.751 28.4907 182.986 28.7253 183.242 29.024C183.114 28.0427 183.157 27.168 183.37 26.4C182.986 26.6987 182.645 27.1893 182.346 27.872C182.047 28.5547 181.877 29.1307 181.834 29.6C181.45 29.3013 181.087 28.8107 180.746 28.128C180.447 27.4453 180.298 26.8693 180.298 26.4C179.914 26.5707 179.445 26.9973 178.89 27.68C178.378 28.3627 178.079 28.9173 177.994 29.344C177.61 29.1307 177.162 28.704 176.65 28.064C176.138 27.3813 175.818 26.8267 175.69 26.4C175.391 26.784 175.157 27.2747 174.986 27.872C175.541 28.5547 175.925 29.216 176.138 29.856C176.223 29.5147 176.287 29.1947 176.33 28.896C176.714 29.3227 177.098 29.9627 177.482 30.816C177.866 31.6693 178.015 32.3947 177.93 32.992C177.973 32.5653 178.101 32.0533 178.314 31.456C178.527 30.8587 178.783 30.4107 179.082 30.112ZM171.85 28.448C172.319 28.448 172.874 28.5547 173.514 28.768V28.64C172.874 28.4267 172.319 28.3627 171.85 28.448ZM174.538 31.264C174.41 31.0933 174.282 30.9013 174.154 30.688C174.154 31.1147 174.197 31.5413 174.282 31.968C174.367 32.3947 174.495 32.736 174.666 32.992C174.965 32.6507 175.242 32.224 175.498 31.712C175.754 31.1573 175.967 30.6027 176.138 30.048C175.711 29.664 175.199 29.344 174.602 29.088V29.216C175.242 29.5147 175.711 29.8347 176.01 30.176C175.583 30.2187 175.071 30.3253 174.474 30.496C174.474 30.8373 174.495 31.0933 174.538 31.264ZM176.202 42.208C175.946 42.5067 175.733 42.8693 175.562 43.296C175.69 43.3387 175.839 43.3813 176.01 43.424C176.01 42.8267 176.074 42.4213 176.202 42.208ZM174.154 42.208C174.111 42.5067 174.111 42.8267 174.154 43.168H174.218C174.133 42.8267 174.111 42.5067 174.154 42.208ZM184.202 45.28C184.074 45.1947 183.967 45.1093 183.882 45.024C183.967 45.7067 184.181 46.432 184.522 47.2C184.863 47.9253 185.247 48.4587 185.674 48.8C186.058 48.5013 186.399 47.9893 186.698 47.264C186.357 46.5813 186.101 45.7493 185.93 44.768C185.759 43.7867 185.823 42.9333 186.122 42.208C185.695 42.464 185.269 42.9333 184.842 43.616C184.458 44.256 184.245 44.8107 184.202 45.28ZM180.49 42.208C180.191 42.592 179.914 43.0613 179.658 43.616C180.298 44.0853 180.853 44.8747 181.322 45.984C181.791 47.0933 182.047 48.032 182.09 48.8C182.047 48.2027 182.175 47.4987 182.474 46.688C182.773 45.8773 183.135 45.1947 183.562 44.64C183.263 44.2987 182.986 43.8933 182.73 43.424C182.474 42.9547 182.325 42.5493 182.282 42.208C181.983 42.592 181.727 43.104 181.514 43.744C181.343 44.384 181.301 44.9387 181.386 45.408C181.087 45.024 180.853 44.512 180.682 43.872C180.511 43.232 180.447 42.6773 180.49 42.208ZM177.418 42.208C177.29 42.464 177.162 42.9547 177.034 43.68C177.205 43.7227 177.354 43.7653 177.482 43.808C177.354 43.2107 177.333 42.6773 177.418 42.208ZM179.658 43.68C179.317 44.4907 179.103 45.3013 179.018 46.112C179.402 45.1307 179.615 44.32 179.658 43.68ZM176.97 44.32C176.885 45.0027 176.799 45.7493 176.714 46.56C177.439 46.5173 177.994 46.432 178.378 46.304C178.037 45.664 177.759 45.0027 177.546 44.32C177.375 44.32 177.183 44.32 176.97 44.32ZM175.626 46.496C175.754 46.496 175.882 46.496 176.01 46.496C175.967 45.6853 175.946 44.96 175.946 44.32C175.69 44.3627 175.455 44.384 175.242 44.384C175.157 44.768 175.135 45.088 175.178 45.344C175.306 45.728 175.455 46.112 175.626 46.496ZM171.85 45.472C172.234 45.6853 172.661 45.8773 173.13 46.048C173.215 45.9627 173.279 45.8773 173.322 45.792C173.109 45.536 172.917 45.28 172.746 45.024C172.405 45.152 172.106 45.3013 171.85 45.472ZM177.226 48.8C177.695 48.3733 178.165 47.712 178.634 46.816C178.549 46.688 178.463 46.5387 178.378 46.368C177.909 46.6667 177.354 46.9013 176.714 47.072C176.671 47.4133 176.65 47.7547 176.65 48.096C176.863 48.3947 177.055 48.6293 177.226 48.8ZM176.01 47.2C176.053 47.2427 176.074 47.2853 176.074 47.328V47.2H176.01Z" fill="white"/>
</svg>
